<svg xmlns="http://www.w3.org/2000/svg" viewBox="0 0 100.1 43.16"><defs><style>.cls-1{fill:#010101;}</style></defs><title>toplogo</title><g id="Layer_2" data-name="Layer 2"><g id="Layer_1-2" data-name="Layer 1"><g id="Layer_2-2" data-name="Layer 2"><g id="TEMPLATE_-_This_layer_DOES_NOT_PRINT" data-name="TEMPLATE - This layer DOES NOT PRINT"><path class="cls-1" d="M10.3,39.25V32.1a1.68,1.68,0,0,0-1.69-1.69H8a1.7,1.7,0,0,0-.67.13,2,2,0,0,0-.54.36,1.68,1.68,0,0,0-.37.54,1.65,1.65,0,0,0-.13.66v7.15H5.16V32.1A1.64,1.64,0,0,0,5,31.44a1.65,1.65,0,0,0-.36-.54,1.8,1.8,0,0,0-.55-.36,1.5,1.5,0,0,0-.66-.13H2.87a1.5,1.5,0,0,0-.66.13,1.6,1.6,0,0,0-.54.36,1.42,1.42,0,0,0-.36.54,1.66,1.66,0,0,0-.14.66v7.15H0V29.49H.39l.64,1a2.85,2.85,0,0,1,1-.86,2.77,2.77,0,0,1,1.32-.32h.09a2.84,2.84,0,0,1,1.56.4A2.7,2.7,0,0,1,6,30.8a3,3,0,0,1,.44-.61,2.84,2.84,0,0,1,1.3-.78,3,3,0,0,1,.79-.11h.1a2.65,2.65,0,0,1,1.11.22,2.72,2.72,0,0,1,.92.62,2.8,2.8,0,0,1,.61.91,2.84,2.84,0,0,1,.23,1.12v7.08Z"/><path class="cls-1" d="M20.12,37.69a3,3,0,0,1-1.53,1.53,2.87,2.87,0,0,1-1.12.22h-.78a2.82,2.82,0,0,1-1.11-.22,3,3,0,0,1-.92-.62,2.8,2.8,0,0,1-.61-.91,2.91,2.91,0,0,1-.23-1.12v-4.4A2.7,2.7,0,0,1,14.05,31a2.8,2.8,0,0,1,.61-.91,2.72,2.72,0,0,1,.92-.62,2.65,2.65,0,0,1,1.11-.22h.78a2.7,2.7,0,0,1,1.12.22A3,3,0,0,1,20.12,31a2.83,2.83,0,0,1,.22,1.12v4.4A2.88,2.88,0,0,1,20.12,37.69Zm-.95-5.59a1.85,1.85,0,0,0-.13-.66,1.45,1.45,0,0,0-.37-.54,1.77,1.77,0,0,0-.53-.36,1.7,1.7,0,0,0-.67-.13h-.78A1.71,1.71,0,0,0,15,32.1v4.54a1.72,1.72,0,0,0,1.7,1.7h.78a1.71,1.71,0,0,0,.67-.14,1.77,1.77,0,0,0,.53-.36A1.53,1.53,0,0,0,19,37.3a1.89,1.89,0,0,0,.13-.66Z"/><path class="cls-1" d="M29,37.69a2.8,2.8,0,0,1-.61.91,3,3,0,0,1-.91.62,2.87,2.87,0,0,1-1.12.22h-.78a2.87,2.87,0,0,1-1.12-.22,3,3,0,0,1-1.53-1.53,2.9,2.9,0,0,1-.22-1.12v-4.4a2.71,2.71,0,0,1,.2-1.16,3,3,0,0,1,1.53-1.53,2.7,2.7,0,0,1,1.12-.22h.78a2.7,2.7,0,0,1,1.12.22,3,3,0,0,1,.91.62,2.81,2.81,0,0,1,.86,2v4.4A2.73,2.73,0,0,1,29,37.69ZM28,32.1a1.69,1.69,0,0,0-1.7-1.69h-.78a1.5,1.5,0,0,0-.66.13,1.6,1.6,0,0,0-.54.36,1.45,1.45,0,0,0-.37.54,1.85,1.85,0,0,0-.13.66v4.54a1.89,1.89,0,0,0,.13.66,1.53,1.53,0,0,0,.37.54,2,2,0,0,0,.54.36,1.66,1.66,0,0,0,.66.14h.78a1.72,1.72,0,0,0,1.7-1.7Z"/><path class="cls-1" d="M31.94,39.25V25.58h1.18V39.25Zm5.39,0-4-4.88,4-4.88h1.53l-4.08,4.88,4.08,4.88Z"/><path class="cls-1" d="M40.71,27.14V25.58h1.37v1.56Zm.1,12.11V29.49H42v9.76Z"/><path class="cls-1" d="M51,37.69a2.8,2.8,0,0,1-.61.91,3,3,0,0,1-.92.62,2.82,2.82,0,0,1-1.11.22h-.78a2.87,2.87,0,0,1-1.12-.22,3,3,0,0,1-1.53-1.53,2.9,2.9,0,0,1-.22-1.12v-4.4A2.7,2.7,0,0,1,44.94,31a3,3,0,0,1,1.53-1.53,2.7,2.7,0,0,1,1.12-.22h.78a2.65,2.65,0,0,1,1.11.22,2.72,2.72,0,0,1,.92.62A2.77,2.77,0,0,1,51,31a2.84,2.84,0,0,1,.23,1.12v2.3H45.89V36.6a1.89,1.89,0,0,0,.13.66,1.53,1.53,0,0,0,.37.54,2,2,0,0,0,.54.36,1.66,1.66,0,0,0,.66.14h.78a1.72,1.72,0,0,0,1.7-1.7V36l1.17.19v.39A2.79,2.79,0,0,1,51,37.69Zm-.94-5.59a1.69,1.69,0,0,0-1.7-1.69h-.78a1.5,1.5,0,0,0-.66.13,1.6,1.6,0,0,0-.54.36,1.45,1.45,0,0,0-.37.54,1.85,1.85,0,0,0-.13.66v1.45h4.18Z"/><path class="cls-1" d="M64.2,39.25l-.64-1a3.06,3.06,0,0,1-1,.86,2.6,2.6,0,0,1-1.31.32H61a2.82,2.82,0,0,1-1.11-.22,3,3,0,0,1-.92-.62,2.8,2.8,0,0,1-.61-.91,2.91,2.91,0,0,1-.23-1.12v-4.4a2.84,2.84,0,0,1,.83-2.06,2.72,2.72,0,0,1,.92-.62,2.65,2.65,0,0,1,1.11-.22h.3a3,3,0,0,1,2.22,1V25.58h1.17V39.25Zm-.78-7.15a1.69,1.69,0,0,0-.49-1.2,2,2,0,0,0-.54-.36,1.7,1.7,0,0,0-.67-.13h-.78a1.68,1.68,0,0,0-1.69,1.69v4.54a1.69,1.69,0,0,0,.13.66,1.72,1.72,0,0,0,1.56,1h.78a1.71,1.71,0,0,0,.67-.14,2,2,0,0,0,.54-.36,1.76,1.76,0,0,0,.36-.54,1.69,1.69,0,0,0,.13-.66Z"/><path class="cls-1" d="M73.24,37.69a3,3,0,0,1-1.53,1.53,2.87,2.87,0,0,1-1.12.22h-.78a2.87,2.87,0,0,1-1.12-.22,3,3,0,0,1-1.53-1.53,2.9,2.9,0,0,1-.22-1.12v-4.4A2.85,2.85,0,0,1,67.16,31a3,3,0,0,1,1.53-1.53,2.7,2.7,0,0,1,1.12-.22h.78a2.7,2.7,0,0,1,1.12.22A3,3,0,0,1,73.24,31a2.83,2.83,0,0,1,.22,1.12v4.4A2.88,2.88,0,0,1,73.24,37.69Zm-.95-5.59a1.72,1.72,0,0,0-1-1.56,1.5,1.5,0,0,0-.66-.13h-.78a1.5,1.5,0,0,0-.66.13,1.6,1.6,0,0,0-.54.36,1.42,1.42,0,0,0-.36.54,1.66,1.66,0,0,0-.14.66v4.54a1.66,1.66,0,0,0,.14.66,1.51,1.51,0,0,0,.36.54,2,2,0,0,0,.54.36,1.66,1.66,0,0,0,.66.14h.78a1.72,1.72,0,0,0,1.7-1.7Z"/><path class="cls-1" d="M81.93,39.25l-.64-1a3.06,3.06,0,0,1-1,.86,2.66,2.66,0,0,1-1.32.32h-.3a2.82,2.82,0,0,1-1.11-.22,3,3,0,0,1-.92-.62,2.8,2.8,0,0,1-.61-.91,2.9,2.9,0,0,1-.22-1.12V29.49H77v7.15a1.69,1.69,0,0,0,.13.66,1.76,1.76,0,0,0,.36.54,2,2,0,0,0,.54.36,1.66,1.66,0,0,0,.66.14h.79a1.66,1.66,0,0,0,.66-.14,2,2,0,0,0,.54-.36A1.76,1.76,0,0,0,81,37.3a1.69,1.69,0,0,0,.13-.66V29.49h1.18v9.76Z"/><path class="cls-1" d="M91.06,41.57a2.56,2.56,0,0,1-.61.85,2.94,2.94,0,0,1-.92.54,3.25,3.25,0,0,1-1.11.2h-.49a3.31,3.31,0,0,1-1.12-.2,3.22,3.22,0,0,1-.91-.54,2.53,2.53,0,0,1-.84-1.94h0a2.42,2.42,0,0,1,.21-1,2.63,2.63,0,0,1,.57-.82,2.27,2.27,0,0,1-.73-.75,2.13,2.13,0,0,1-.27-1,2,2,0,0,1,.22-1,1.9,1.9,0,0,1,.6-.72,3,3,0,0,1-.72-1A2.79,2.79,0,0,1,84.67,33v-.73A2.81,2.81,0,0,1,84.89,31a3,3,0,0,1,1.53-1.53,2.7,2.7,0,0,1,1.12-.22H88a2.89,2.89,0,0,1,1.32.32,3.06,3.06,0,0,1,1,.86l.64-1h.39v3.41A2.89,2.89,0,0,1,91.16,34a3,3,0,0,1-1.53,1.53,2.87,2.87,0,0,1-1.12.22h-1.7a1,1,0,0,0-.38.08,1.4,1.4,0,0,0-.32.22,1,1,0,0,0,0,1.4,1,1,0,0,0,.32.22,1,1,0,0,0,.38.07h1.61a3.25,3.25,0,0,1,1.11.2,2.78,2.78,0,0,1,.92.55,2.56,2.56,0,0,1,.61.85,2.69,2.69,0,0,1,.23,1.08h0A2.64,2.64,0,0,1,91.06,41.57Zm-.84-9.47a1.66,1.66,0,0,0-.14-.66,1.42,1.42,0,0,0-.36-.54,1.8,1.8,0,0,0-.55-.36,1.5,1.5,0,0,0-.66-.13h-1a1.5,1.5,0,0,0-.66.13,1.6,1.6,0,0,0-.54.36,1.42,1.42,0,0,0-.36.54,1.66,1.66,0,0,0-.14.66V33a1.66,1.66,0,0,0,.14.66,1.51,1.51,0,0,0,.36.54,2,2,0,0,0,.54.36,1.66,1.66,0,0,0,.66.14h1a1.66,1.66,0,0,0,.66-.14,2,2,0,0,0,.55-.36,1.51,1.51,0,0,0,.36-.54,1.66,1.66,0,0,0,.14-.66Zm0,8.29a1.41,1.41,0,0,0-.13-.64,1.51,1.51,0,0,0-.36-.47,1.78,1.78,0,0,0-.54-.3,1.91,1.91,0,0,0-.67-.1h-.6a2.11,2.11,0,0,0-.66.1,1.44,1.44,0,0,0-.54.3,1.51,1.51,0,0,0-.36.47,1.41,1.41,0,0,0-.13.64v.15a1.38,1.38,0,0,0,.49,1.1,1.59,1.59,0,0,0,.54.3,2.11,2.11,0,0,0,.66.1h.6a2.18,2.18,0,0,0,.67-.1,1.78,1.78,0,0,0,.54-.3,1.38,1.38,0,0,0,.49-1.1Z"/><path class="cls-1" d="M98.88,39.25V32.1a1.68,1.68,0,0,0-1.69-1.69h-.78a1.7,1.7,0,0,0-.67.13,2,2,0,0,0-.54.36,1.69,1.69,0,0,0-.49,1.2v7.15H93.54V25.58h1.17v4.73a3,3,0,0,1,2.22-1h.3a2.65,2.65,0,0,1,1.11.22,2.72,2.72,0,0,1,.92.62,2.8,2.8,0,0,1,.61.91,2.84,2.84,0,0,1,.23,1.12v7.08Z"/><path class="cls-1" d="M50.86,3.87a2.61,2.61,0,0,0-3.29-.33l-1-3.22A.44.44,0,0,0,46.16,0a.45.45,0,0,0-.43.31l-1,3.35a10.35,10.35,0,0,0-9.73,0L34,.27A.44.44,0,0,0,33.51,0a.45.45,0,0,0-.42.31l-1,3.25a2.6,2.6,0,0,0-3.34.3,2.63,2.63,0,0,0,0,3.71L30.21,9a10.45,10.45,0,1,0,19.28-.1l1.34-1.33a2.6,2.6,0,0,0,.06-3.68ZM50.24,7,48.69,8.5a.42.42,0,0,0-.08.49,9.6,9.6,0,1,1-18.27,4,9.71,9.71,0,0,1,.83-3.94.43.43,0,0,0-.1-.48L29.41,7a1.75,1.75,0,0,1,2.33-2.62l.15.16.16.16a.41.41,0,0,0,.41.12.47.47,0,0,0,.31-.3L33.55,2l.78,2.57a.37.37,0,0,0,.26.27.4.4,0,0,0,.37,0,9.52,9.52,0,0,1,9.8,0,.4.4,0,0,0,.37,0,.37.37,0,0,0,.26-.27L46.16,2l.76,2.49a.4.4,0,0,0,.31.29.42.42,0,0,0,.41-.11l.11-.11a1.74,1.74,0,0,1,2.45,0l0,0a1.72,1.72,0,0,1,.51,1.23A1.67,1.67,0,0,1,50.24,7Z"/><path class="cls-1" d="M39.91,13.11c-3.13,0-5.66,2-5.66,4.37s2.53,4.38,5.66,4.38,5.66-2,5.66-4.38S43,13.11,39.91,13.11Zm0,7.87c-2.64,0-4.78-1.56-4.78-3.5S37.27,14,39.91,14s4.78,1.56,4.78,3.49S42.56,21,39.91,21Z"/><path class="cls-1" d="M36.65,15.73c-.61,0-1.09.65-1.09,1.53s.48,1.52,1.09,1.52,1.09-.65,1.09-1.52S37.27,15.73,36.65,15.73Zm0,2.18a1.13,1.13,0,0,1,0-1.31.8.8,0,0,1,.23.66A.83.83,0,0,1,36.65,17.91Z"/><circle class="cls-1" cx="36" cy="11.37" r="0.88"/><circle class="cls-1" cx="43.83" cy="11.37" r="0.88"/><path class="cls-1" d="M43.18,15.73c-.62,0-1.09.65-1.09,1.53s.47,1.52,1.09,1.52,1.09-.65,1.09-1.52S43.8,15.73,43.18,15.73Zm0,2.18a1.13,1.13,0,0,1,0-1.31.84.84,0,0,1,.23.66A.83.83,0,0,1,43.18,17.91Z"/><path class="cls-1" d="M76.56,10a.38.38,0,0,0-.31-.31.37.37,0,0,0-.39.16A2.78,2.78,0,0,1,73.59,11a2.73,2.73,0,0,1-2.4-1.38.51.51,0,0,0-.39-.19h-.35A3.55,3.55,0,0,1,66.9,5.91h0a4.15,4.15,0,0,1,.13-1,5.37,5.37,0,0,1,.21-.56.55.55,0,0,0,0-.31A.37.37,0,0,0,67,3.8,2,2,0,0,1,65.7,2V1.77a.29.29,0,0,1,0-.13V1.56a2.08,2.08,0,0,1,.39-.9A.43.43,0,0,0,66.2.27.33.33,0,0,0,65.89,0h-1a11.8,11.8,0,1,0,11.8,11.8A11.55,11.55,0,0,0,76.56,10ZM66.25,4.81a1.72,1.72,0,0,1-.93.31,1.58,1.58,0,0,1-1.58-1.58h0A1.55,1.55,0,0,1,64.91,2,2.73,2.73,0,0,0,66.36,4.4C66.33,4.53,66.28,4.68,66.25,4.81Zm-1.32,18a11,11,0,0,1,0-22h.28a2.09,2.09,0,0,0-.17.41,2.36,2.36,0,0,0,.3,4.7,2.29,2.29,0,0,0,.78-.14v.14a4.32,4.32,0,0,0,4.31,4.33h.21A3.61,3.61,0,0,0,76,11a6.17,6.17,0,0,1,0,.86,11.06,11.06,0,0,1-11,11Z"/><path class="cls-1" d="M59.82,6.29a2.36,2.36,0,1,0,2.36,2.36,2.36,2.36,0,0,0-2.36-2.36Zm0,3.94A1.58,1.58,0,1,1,61.4,8.65a1.58,1.58,0,0,1-1.58,1.58Z"/><path class="cls-1" d="M60.21,15a2,2,0,1,0,2,2h0a2,2,0,0,0-1.9-2Zm0,3.14A1.19,1.19,0,0,1,59,16.92a1.18,1.18,0,1,1,2.36,0h0a1.16,1.16,0,0,1-1.14,1.18Z"/><path class="cls-1" d="M68.07,13.77a3.14,3.14,0,1,0,3.14,3.14h0A3.16,3.16,0,0,0,68.07,13.77Zm0,5.5a2.36,2.36,0,1,1,2.36-2.36,2.36,2.36,0,0,1-2.36,2.36Z"/></g></g></g></g></svg>