<?xml version="1.0" encoding="utf-8"?>
<!-- Svg Vector Icons : http://www.onlinewebfonts.com/icon -->
<!DOCTYPE svg PUBLIC "-//W3C//DTD SVG 1.1//EN" "http://www.w3.org/Graphics/SVG/1.1/DTD/svg11.dtd">
<svg version="1.1" xmlns="http://www.w3.org/2000/svg" xmlns:xlink="http://www.w3.org/1999/xlink" x="0px" y="0px" viewBox="0 0 1000 1000" enable-background="new 0 0 1000 1000" xml:space="preserve">
<metadata> Svg Vector Icons : http://www.onlinewebfonts.com/icon </metadata>
<g><path d="M500,10C229.4,10,10,229.4,10,500c0,270.6,219.4,490,490,490c270.6,0,490-219.4,490-490C990,229.4,770.6,10,500,10L500,10z M500,928.9c-236.9,0-428.9-192-428.9-428.9c0-236.9,192-428.9,428.9-428.9s428.9,192,428.9,428.9C928.9,736.9,736.9,928.9,500,928.9L500,928.9z"/><path d="M255,500c0,135.3,109.7,245,245,245s245-109.7,245-245S635.3,255,500,255S255,364.7,255,500z"/></g>
</svg>