<svg xmlns="http://www.w3.org/2000/svg" viewBox="0 0 319.6 319.6"><defs><style>.cls-1{fill:none;stroke:#000;stroke-miterlimit:10;stroke-width:3px;stroke-dasharray:12.13 12.13;}</style></defs><title>mookie good cart</title><g id="Layer_2" data-name="Layer 2"><g id="Layer_3" data-name="Layer 3"><g id="Layer_2-2" data-name="Layer 2"><g id="TEMPLATE_-_This_layer_DOES_NOT_PRINT" data-name="TEMPLATE - This layer DOES NOT PRINT"><path d="M244.2,201.13c-1.17-4.17-2.29-8.26-3.23-12.57A240.3,240.3,0,0,1,235,148a49.1,49.1,0,0,0,.39,11,272.26,272.26,0,0,0,7.28,42.33,2.61,2.61,0,0,1-.26,2.45,36.41,36.41,0,0,1-3.79,5.43,138.25,138.25,0,0,1-15.33,13.9q-2.61,1.77-5,3.79a2.79,2.79,0,0,1-2.66.91A115,115,0,0,0,204,226.54c-1.6-.09-.61-1-.61-1.68a206,206,0,0,0,7.37-40.3c.08-1.94.43-3.06-2.41-3.57a187.31,187.31,0,0,0-43.32-3.15,88,88,0,0,0-31.08,7,42.52,42.52,0,0,0-8.61,5.59c24.15-14.29,50.2-11.84,76.37-8.18a260.69,260.69,0,0,0-27.08,5.47c-6,1.64-12.09,2.54-18.08,4.05a129.84,129.84,0,0,0-23.34,6.84,43.57,43.57,0,0,0,8.62-1.63c14.89-3.19,29.88-6,44.73-9.39,5.9-1.33,11.84-2.58,17.78-3.74,3.7-.78,4.31,0,4.31,3.53a10,10,0,0,1,0,1.55,254.71,254.71,0,0,1-7.88,38.75c-.3,1.2-.73,1.2-1.81,1.2a79.71,79.71,0,0,0-12,0,161.68,161.68,0,0,0-26.31,5.34c-5.46,1.46-10.93,2.93-16.44,4A13.17,13.17,0,0,1,130.83,233a51.1,51.1,0,0,1-7.66-15.54c-1.77-4.61-3-9.3-4.31-13.95,2.37,11.66,4.61,23.33,12.66,32.93h-.82c-6.45,0-12.74,1.81-19.2,2.24a3.62,3.62,0,0,1-2.32-.64c-2.46-1.81-5.17-3.28-7.54-5.3a127.94,127.94,0,0,1-18.85-21.53,101,101,0,0,1-10.21-15.67,2.65,2.65,0,0,1,0-2.45,115.34,115.34,0,0,0,8.22-37c.52-5.64-.6-11.45,1.38-17-2,3.4-3.92,6.88-6,10.24A78.45,78.45,0,0,1,61.65,167a17.24,17.24,0,0,1-14.13,4.91,38.07,38.07,0,0,1-11.84-2.32c-4.22-1.94-4.65-5.21-1.16-8.23a77.13,77.13,0,0,1,10-6.71c6-3.75,12.79-6.55,18.94-10.29a88.14,88.14,0,0,0,18.09-12.06,7.56,7.56,0,0,0,2.15-2.88,45.59,45.59,0,0,1-9.34,7.19c-6.25,3.91-13.18,6.67-19.64,10.33a145.42,145.42,0,0,0-18.47,10.16,20.78,20.78,0,0,0-6.46,6.2v3.87a12.54,12.54,0,0,0,9,5.43,79.2,79.2,0,0,0,10.07,1.16A17,17,0,0,0,60.61,170a45.26,45.26,0,0,0,5.81-5.34A89.49,89.49,0,0,0,79.34,146c.47-.81.35-2,1.64-2.62a26.37,26.37,0,0,0-.26,4.3c-.65,6.16-1.38,12.32-2.5,18.39A93.85,93.85,0,0,1,71,191a6.43,6.43,0,0,0,0,6.76A163.94,163.94,0,0,0,95.1,229.16a59.44,59.44,0,0,0,14,10.51c-.46.23-.94.43-1.41.64,2.11,0,4.21,0,6.31,0,0,0,0,0,0,0,.17-.9,1.07-.6,1.68-.6l15.45-2.88a2.44,2.44,0,0,1,2.71.73,8.67,8.67,0,0,0,5.9,2.07,38,38,0,0,0,9-.56,16,16,0,0,1,2.19,0,13.08,13.08,0,0,1,3.88-1.11,6.55,6.55,0,0,1,.63-.19,2.17,2.17,0,0,1-.24-.44v0a154.74,154.74,0,0,1,29.37-5.67,10.6,10.6,0,0,1,4.3-1.12,3.54,3.54,0,0,1,2,.64h.1l-.06,0a3.07,3.07,0,0,1,.47.41l1.36-.91c1-.56,2.28,0,3.44,0a20.15,20.15,0,0,1,4,.3c1,.13,1.94,0,2.24-1s1.19-.36,2-.35c-.06.11-.12.2-.18.29l.67-.15a3.39,3.39,0,0,1,2.41.28,3.14,3.14,0,0,1,1.28.63c.86-.16,1.72-.3,2.58-.4a3.19,3.19,0,0,1-.54-.56c1.71,0,3.42.12,5.12.3a5.88,5.88,0,0,0,5.43-2.28,22.83,22.83,0,0,1,2.54-2.37A129.74,129.74,0,0,0,239.33,211a32.24,32.24,0,0,0,4.61-6.67A4,4,0,0,0,244.2,201.13Z"/><path d="M197.14,68.87a64.62,64.62,0,0,1,12.91,4.31,43.79,43.79,0,0,1,14.86,10.46,29.17,29.17,0,0,1,4.73,28.5,22.08,22.08,0,0,1-10,13.35,14.18,14.18,0,0,1-9.25,1.33l-3.15-.38a23.91,23.91,0,0,1,1.29,16.36,103.51,103.51,0,0,0-1.67-10.34,18.07,18.07,0,0,0-3.92-7.92,9.51,9.51,0,0,0-10.16-2.45l-1.73.51h-.34a12.07,12.07,0,0,1,7.66-2.67c-2.06-5.77-2.06-5.77-.43-12.91a22.62,22.62,0,0,1-9.9-2.28c-.3-.22-.69,0-.95.3a85.82,85.82,0,0,1-11.15,9.43,30.15,30.15,0,0,1-15.15,6.84,43.66,43.66,0,0,0,7.4-2.93,66.38,66.38,0,0,0,16.71-14.12c2-2.41,4.3-4.82,6.28-7.1,1.47-1.55.78-2.54-.43-3.62a22.53,22.53,0,0,0-18.9-5.47,38.27,38.27,0,0,0-15.67,5.64A116.24,116.24,0,0,0,142,103.79a35.75,35.75,0,0,0-3,3.14c-1,1.08-1.63.56-2.28-.26a3.3,3.3,0,0,1-.17-3.66,11.74,11.74,0,0,1,3.14-4q7.2-6.17,15-11.58c1.34-1,3.36-2.07,2.89-3.79s-2.71-1.5-4.31-1.76a19.08,19.08,0,0,0-15,3.1A44.18,44.18,0,0,0,129,92.59a70.09,70.09,0,0,0-9.18,12.92,10.12,10.12,0,0,1,1.47-6.59c1.29-2.45,2.67-4.86,4-7.36.35-.64,1-1.59,0-2.15s-1.07.26-1.85.69a11.54,11.54,0,0,0-2.67,4.3A109.54,109.54,0,0,0,116.5,106a9.79,9.79,0,0,1-6.63,6.59c.6,1.08,1.89,1.38,2.45,2.28a5.42,5.42,0,0,1,.39,5.39,23.46,23.46,0,0,1-6.2,8.61c-5,4-10.33,4.3-18,.47a14.86,14.86,0,0,1-7.32-15.5,43.06,43.06,0,0,1,7-17.91,50.2,50.2,0,0,1,12.61-12.1A14,14,0,0,1,105.47,82c1.47-.39,1.47,0,1.12,1.29A42,42,0,0,0,104,99.53a19.49,19.49,0,0,0,3.66,10.89,1.72,1.72,0,0,0,2.27.88,1.75,1.75,0,0,0,.48-.32,9.66,9.66,0,0,0,4.31-6.46,48.27,48.27,0,0,1,4.56-12.92,9.81,9.81,0,0,1,3.49-4,3.5,3.5,0,0,1,4.31,0c1.37,1.12.9,2.5.34,3.83,0,.26-.39.48,0,.91a79.66,79.66,0,0,1,8.14-7.66,21.5,21.5,0,0,1,18.85-4.65,20.3,20.3,0,0,1,2.76.81c2.88,1,3.44,2.89,1.59,5.39a20.66,20.66,0,0,1-4.35,3.83l-11.75,9.34a7,7,0,0,0-1.89,2.15c3-2.15,6.11-4.3,9-6.46a45.78,45.78,0,0,1,18.56-8.61,24.88,24.88,0,0,1,24.84,6.55c2,2.11,2.07,2.28,0,4.3s-2.71,3.53-4.3,5.64a18.73,18.73,0,0,1,7.23,1c2.28,1.2,3.62.86,4.87-1.47a21.08,21.08,0,0,1,3.18-3.87,17.21,17.21,0,0,0,2.28-22.39,16.77,16.77,0,0,0-8.95-6.63,1.35,1.35,0,0,1-1-.82Zm6.54,2.8a24.86,24.86,0,0,1,4.87,6,15.86,15.86,0,0,1,2.41,11,21.49,21.49,0,0,1-6.68,12.91,20.72,20.72,0,0,0-4.65,7.41,10.46,10.46,0,0,0,2.16,11c4,5.08,15.58,4.65,19.54,1.25A21.84,21.84,0,0,0,227.58,111a26.08,26.08,0,0,0-4.87-27.42A49.25,49.25,0,0,0,203.68,71.67ZM106.42,82.61a5.66,5.66,0,0,0-3.79,1.24A49.35,49.35,0,0,0,90.28,96.17a40,40,0,0,0-6.72,18,13.78,13.78,0,0,0,17.22,14.77c5.25-.94,8-5.64,10.16-10.24a1.8,1.8,0,0,0-.26-2.24,18.36,18.36,0,0,1-2.49-2.72,17.93,17.93,0,0,1-5.47-11.58A40.7,40.7,0,0,1,106.42,82.61Z"/><path d="M227.23,120.58a54.27,54.27,0,0,0,16.58,12.57c6.89,4.31,14.29,7.45,21.27,11.54a94.81,94.81,0,0,1,11.84,7.49c4.3,3.4,3.66,7.54-1.25,9.6a32.7,32.7,0,0,1-17.95,1.94,22.17,22.17,0,0,1-12-7.88l-2.92-3.27a90.69,90.69,0,0,1-13.91-21.79c2.54,3.1,4.3,6.68,6.59,9.91a114.54,114.54,0,0,0,13.64,15.63,19.85,19.85,0,0,0,18.82,5,27,27,0,0,0,7-1.77c3.1-1.46,3.36-3.27.73-5.47a90.66,90.66,0,0,0-10-6.41c-6.37-4-13.26-7.19-19.64-11.24a106.61,106.61,0,0,1-14.12-9.73A20.15,20.15,0,0,1,227.23,120.58Z"/><path d="M200.84,171c.22-3.14,0-6.24,0-9.34a88.55,88.55,0,0,0-1.46-16.49c-.26-1.17-.39-3-1.68-3.06s-2,1.68-2.37,3.06a73.76,73.76,0,0,0-.69,20.45,24.67,24.67,0,0,0,.35,5h-.61A46.42,46.42,0,0,1,191,144a9.48,9.48,0,0,1,2.28-4.31,5.44,5.44,0,0,1,7.61-1,5.37,5.37,0,0,1,1.69,2.2,22.13,22.13,0,0,1,1.9,10.37,61.68,61.68,0,0,1-2.07,17.48,9.25,9.25,0,0,1-.9,2.67Z"/><path d="M114.26,176.21A20.59,20.59,0,0,1,111,155.58a6,6,0,0,1,5.64-3.27,5.64,5.64,0,0,1,5.29,3.36,24.94,24.94,0,0,1,1,18.08,11.65,11.65,0,0,1-1.85,4.82c0-2.23-.3-4-.39-5.72a44.65,44.65,0,0,0-1.46-12c-.43-1.43-.78-3.41-2.67-3.32s-2.41,1.81-2.76,3.49a42.67,42.67,0,0,0,.65,14C114.47,175.39,114.77,175.73,114.26,176.21Z"/><path d="M101.9,155.2a13.44,13.44,0,0,1-1.59-5.95,29.14,29.14,0,0,1,2.41-14.68,10.25,10.25,0,0,1,12.92-5.72c-1.38.21-2.63.34-3.84.64a9.94,9.94,0,0,0-6.84,6,40.58,40.58,0,0,0-3.06,17Z"/><path d="M141.68,204.41a30.13,30.13,0,0,0-15.71.47,21.1,21.1,0,0,0,6.28,5.77c-3.05-.69-6.28-1.08-8.13-4.05-1.21-1.89-.91-3.27,1.2-4A18.69,18.69,0,0,1,141.68,204.41Z"/><path d="M198.43,200.23c1.55-1.29,2.88-2.15,3.14-4s-.34-2.46-2-2.59a41.11,41.11,0,0,0-10.25,1.08l-2.28.39a16.74,16.74,0,0,1,14.72-3.36,4.31,4.31,0,0,1,1.33,5.94,4,4,0,0,1-.46.6C201.74,199.46,200.84,199.84,198.43,200.23Z"/></g></g><circle class="cls-1" cx="159.8" cy="159.8" r="158.3"/></g></g></svg>