<svg xmlns="http://www.w3.org/2000/svg" viewBox="0 0 100 56.61"><defs><style>.cls-1{fill:#010101;}</style></defs><title>mookie car</title><g id="Layer_2" data-name="Layer 2"><g id="Layer_1-2" data-name="Layer 1"><path d="M100,31.55a7.33,7.33,0,0,0-.19-.81.07.07,0,0,0,0-.06c-.51-1-1.58-3.17-14.24-5.19-3.21-.52-6.36-1.19-9.39-2L64.08,9.42a2.08,2.08,0,0,0-3.16,2.71l9.55,11.15H31.25V21.19a2.09,2.09,0,0,0-4.17,0v2.09H12A11.75,11.75,0,0,0,0,34.74,11.65,11.65,0,0,0,10.43,46.09s0,.07,0,.1a10.42,10.42,0,1,0,20.83,0h37.5a10.42,10.42,0,1,0,20.83,0h1.86c5,0,8.56-3.28,8.56-7.81V31.61S100,31.57,100,31.55ZM20.83,52.44a6.25,6.25,0,1,1,6.25-6.25A6.25,6.25,0,0,1,20.83,52.44Zm58.34,0a6.25,6.25,0,1,1,6.25-6.25A6.24,6.24,0,0,1,79.17,52.44ZM95.83,38.38c0,2.52-2.2,3.65-4.39,3.65H88.7a10.4,10.4,0,0,0-19.07,0H30.37a10.39,10.39,0,0,0-19-.06,7.49,7.49,0,0,1-7.16-7.24A7.58,7.58,0,0,1,12,27.44H74.73A100.06,100.06,0,0,0,84.88,29.6c7,1.12,10.11,2.29,11,2.79v6Z"/></g><g id="Layer_2-2" data-name="Layer 2"><path d="M41.7,18.36a.31.31,0,0,0,.17.3,1.73,1.73,0,0,1,.79,1.59c.07.94.17,1.87.26,2.81a1.38,1.38,0,0,1,0,.29.24.24,0,0,1-.26.26c-.19,0-.3-.08-.3-.27,0-.62-.21-1.23-.18-1.86a14,14,0,0,0-.09-1.58.74.74,0,0,0-.25-.51c-.28-.25-.55-.5-.85-.73a.63.63,0,0,0-.77-.09,3.62,3.62,0,0,1-.45.2,1.34,1.34,0,0,0-.82,1.2c-.14,1.15-.55,2.25-.77,3.4,0,.16-.13.24-.29.22s-.19-.14-.21-.27A4.5,4.5,0,0,1,38,21.53c.19-.6.12-1.21.27-1.8A1.58,1.58,0,0,1,39,18.55a.51.51,0,0,0-.49-.11,4.81,4.81,0,0,1-1.73-.21c-.37-.12-.42.06-.36.35.12.65.27,1.3.4,2a16.14,16.14,0,0,1,.43,2.67c0,.18.09.38-.19.41s-.34-.12-.4-.33a16.92,16.92,0,0,1-.33-1.84c-.17-1.13-.52-2.22-.63-3.35a.22.22,0,0,0,0-.16,7,7,0,0,0-1.53-1.82,5.74,5.74,0,0,1-2-2.15,12.77,12.77,0,0,1-1-2.61.58.58,0,0,1,.08-.52,5,5,0,0,0,.55-1.51c.36-1.29.53-2.64,1-3.91a10.66,10.66,0,0,1,1.31-2.5A5.84,5.84,0,0,1,35,2.16.53.53,0,0,1,35.43,2a2.18,2.18,0,0,0,1.86-.72A4.25,4.25,0,0,1,40.54,0a.77.77,0,0,1,.71.42c.15.37.37.3.63.22A10.59,10.59,0,0,1,44.94.11a1,1,0,0,1,.61.1,1.65,1.65,0,0,0,1.54.11,7.08,7.08,0,0,1,3.82.06A5,5,0,0,1,53.6,2a3.41,3.41,0,0,1,.54,1.16.57.57,0,0,1-.13.59c-.18.17-.32,0-.48-.06a1.67,1.67,0,0,0-1.25.44,1.69,1.69,0,0,0-.71,1.78c.17,1,.35,2,.52,3a.63.63,0,0,0,.47.56,9.51,9.51,0,0,1,2.57,1.43,9.94,9.94,0,0,1,.9.83c.33.32,0,.69-.2.9a2,2,0,0,0-.57,1.26,3.25,3.25,0,0,1-.74,1.51.43.43,0,0,1-.31.2,2.74,2.74,0,0,0-1.77,1.06,1.35,1.35,0,0,1-.92.41c-.84,0-.92.16-.62.93a4.77,4.77,0,0,1,.3,2.24,3.65,3.65,0,0,0,.08,1A7.23,7.23,0,0,1,51.22,23a.74.74,0,0,1-.2.45.33.33,0,0,1-.6-.11c0-.09-.07-.18-.1-.27A2.83,2.83,0,0,0,48,21c-.24-.05-.47-.15-.71-.22s-.26-.05-.29-.21a.38.38,0,0,1,.2-.38l.49-.31c.08-.05.2-.09.17-.21s-.15-.12-.24-.13c-.46-.05-.91-.08-1.37-.11a.86.86,0,0,1-.58-.18,4.37,4.37,0,0,0-2.42-.89A9.48,9.48,0,0,0,41.7,18.36Zm6-1.76c2.18.11,2.87-.77,3.47-2.44a11.41,11.41,0,0,0,.44-3.53,19.57,19.57,0,0,0-.51-3.57,7.47,7.47,0,0,1,0-2.11,2.06,2.06,0,0,1,1.66-1.68c.82-.23.69-.39.32-1a1.24,1.24,0,0,0-.19-.21A5.19,5.19,0,0,0,50.42.81C50.27.76,50,.63,50,.77s.13.3.25.41a2.61,2.61,0,0,1,.23,3.61c-.29.38-.52.71-.2,1.21.18.27,0,.48-.31.46s-.37.08-.44.32a4.87,4.87,0,0,0-.17,1.07c0,.19-.09.42-.31.43s-.23-.23-.27-.4a4,4,0,0,1-.06-1c0-.61,0-.6-.57-.37a2.36,2.36,0,0,1-1.86,0,2.31,2.31,0,0,1-1.53-2.41,2,2,0,0,1,2-2.05c.48-.05,1-.11,1.44-.2A.67.67,0,0,0,48.7,1c-.09-.41-.41-.35-.7-.31a9,9,0,0,0-2,.44,1.9,1.9,0,0,1-.82.11C45,1.26,44.88,1.2,45,1c.38-.51-.13-.4-.29-.37a12,12,0,0,0-2.4.46c-.74.27-1.53.29-2.26.54-.1,0-.21,0-.24-.1s.06-.16.15-.17a.91.91,0,0,0,.51-.27c.1-.1.28-.16.23-.35s-.25-.15-.39-.15a4.41,4.41,0,0,0-2.85,1.31c-.11.09-.1.21-.08.34s-.06.34-.26.34a4.49,4.49,0,0,0-1.42.29c-.47.14-1,.1-1.34.64a12.23,12.23,0,0,0-1.43,3.74,28.34,28.34,0,0,1-1,3.85.75.75,0,0,0,0,.53,16.81,16.81,0,0,0,.83,1.9,8.61,8.61,0,0,0,3.23,3.11,3.35,3.35,0,0,0,1.53.51,27.2,27.2,0,0,0,4.6-.18c1.25-.16,2.5-.3,3.76-.41C46.5,16.53,47.15,16.68,47.74,16.6ZM47.15,5.94a3.09,3.09,0,0,0,3.13-2.66,2,2,0,0,0-.61-1.8c-.28-.28-.39-.15-.47.12a.94.94,0,0,1-.58.67,10.45,10.45,0,0,1-2.22.47,1.32,1.32,0,0,0-1,.76A1.76,1.76,0,0,0,47.15,5.94ZM55,12.12c-.29.46-.73.34-1,.56a.25.25,0,0,1-.34,0,.31.31,0,0,1-.09-.38c0-.1.14-.18.07-.31a1.77,1.77,0,0,0-1.41,0,.27.27,0,0,0,0,.16,7.47,7.47,0,0,1-.43,2.14,5,5,0,0,1-1,2.06c-.07.07-.24.09-.17.24a.3.3,0,0,0,.28.14,1.24,1.24,0,0,0,.33,0A3.88,3.88,0,0,0,53,15.37a.9.9,0,0,1,.67-.34.62.62,0,0,0,.5-.3c.36-.44.32-1,.55-1.5A2,2,0,0,0,55,12.12ZM48.18,19a14,14,0,0,0-3.38-1.38,9.27,9.27,0,0,0-3.64.18,8.29,8.29,0,0,0,1.23,0,5.6,5.6,0,0,1,3.33.82A7.49,7.49,0,0,0,48.18,19Zm2.56,2.85a.88.88,0,0,1,0-.16c-.06-1-.84-1.57-1.5-2.18-.17-.16-.34-.08-.43.13a.82.82,0,0,1-.24.37c-.15.11-.44.15-.39.38s.35.23.54.31a2.25,2.25,0,0,0,.24.08c.65.21,1.3.42,1.49,1.21,0,.09.09.2.21.15S50.73,21.93,50.74,21.82Zm3.44-10.28c.18,0,.39.07.45-.1s-.16-.24-.28-.32c-.34-.23-.69-.46-1.05-.66-.57-.32-.79-.24-1,.32-.13.32,0,.52.3.54A11.57,11.57,0,0,1,54.18,11.54Zm-8.38,5.7a8.84,8.84,0,0,0,2.17.6,4.17,4.17,0,0,0,.49.08c.36,0,.43-.25.47-.48s-.23-.25-.41-.25h-1.2A6.1,6.1,0,0,0,45.8,17.24Z"/><path d="M37.61,6.53A7.38,7.38,0,0,1,37,9.42a2.22,2.22,0,0,0-.15,1.73.67.67,0,0,0,.67.46,1.4,1.4,0,0,0,1-.4A3.24,3.24,0,0,0,39.34,9a19.66,19.66,0,0,0,.18-2.65c0-.21,0-.47.29-.48s.26.27.28.48a14.38,14.38,0,0,1-.15,3.47,2.75,2.75,0,0,1-1.11,2,2.86,2.86,0,0,1-1.65.45.82.82,0,0,1-.77-.47,2.3,2.3,0,0,1-.17-1.93A23.75,23.75,0,0,0,37,7.1a4.5,4.5,0,0,0,0-1.37c0-.23-.17-.61.2-.65s.29.35.33.57A6.4,6.4,0,0,1,37.61,6.53Z"/><path d="M51.1,9.83c0,.26,0,.4,0,.53a.27.27,0,0,1-.19.25A1.17,1.17,0,0,1,49.75,10a3.58,3.58,0,0,1-.16-2.12c.06-.27.17-.55.47-.56a.59.59,0,0,1,.6.49A13.32,13.32,0,0,1,51.1,9.83Z"/></g><g id="Layer_3" data-name="Layer 3"><g id="Layer_2-3" data-name="Layer 2"><g id="TEMPLATE_-_This_layer_DOES_NOT_PRINT" data-name="TEMPLATE - This layer DOES NOT PRINT"><path class="cls-1" d="M36.61,40V37.89a.45.45,0,0,0,0-.2.51.51,0,0,0-.27-.27.45.45,0,0,0-.2,0h-.18a.45.45,0,0,0-.2,0,.57.57,0,0,0-.16.11.36.36,0,0,0-.11.16.45.45,0,0,0,0,.2V40h-.34V37.89a.46.46,0,0,0,0-.2.36.36,0,0,0-.11-.16.46.46,0,0,0-.16-.11.45.45,0,0,0-.2,0h-.17a.43.43,0,0,0-.19,0,.5.5,0,0,0-.17.11.44.44,0,0,0-.1.16.46.46,0,0,0-.05.2V40h-.35V37.11h.12l.19.3a.83.83,0,0,1,.3-.26.79.79,0,0,1,.4-.1h0a.94.94,0,0,1,.47.12.8.8,0,0,1,.3.33.83.83,0,0,1,.13-.18.8.8,0,0,1,.39-.24l.24,0h0a.92.92,0,0,1,.33.06,1.07,1.07,0,0,1,.28.19.88.88,0,0,1,.25.61V40Z"/><path class="cls-1" d="M39.55,39.56a.86.86,0,0,1-.46.46.75.75,0,0,1-.33.07h-.24a.78.78,0,0,1-.33-.07,1,1,0,0,1-.27-.18,1.07,1.07,0,0,1-.19-.28.93.93,0,0,1-.07-.33V37.91a1,1,0,0,1,.07-.35,1,1,0,0,1,.46-.46,1,1,0,0,1,.33-.06h.24a.92.92,0,0,1,.33.06.9.9,0,0,1,.46.46.8.8,0,0,1,.07.34v1.32A.83.83,0,0,1,39.55,39.56Zm-.28-1.67a.65.65,0,0,0,0-.2.46.46,0,0,0-.11-.16.57.57,0,0,0-.16-.11.45.45,0,0,0-.2,0h-.24a.43.43,0,0,0-.19,0,.48.48,0,0,0-.27.27.45.45,0,0,0,0,.2v1.36a.51.51,0,0,0,.31.47.65.65,0,0,0,.19,0h.24a.65.65,0,0,0,.2,0,.91.91,0,0,0,.16-.11.57.57,0,0,0,.11-.16.71.71,0,0,0,0-.2Z"/><path class="cls-1" d="M42.21,39.56a.84.84,0,0,1-.18.28,1,1,0,0,1-.27.18.8.8,0,0,1-.34.07h-.23a.8.8,0,0,1-.34-.07.88.88,0,0,1-.45-.46.75.75,0,0,1-.07-.33V37.91a.7.7,0,0,1,.06-.35.9.9,0,0,1,.46-.46.92.92,0,0,1,.33-.06h.24a.92.92,0,0,1,.33.06,1.07,1.07,0,0,1,.28.19.88.88,0,0,1,.25.61v1.32A.69.69,0,0,1,42.21,39.56Zm-.3-1.67a.45.45,0,0,0,0-.2.48.48,0,0,0-.27-.27.43.43,0,0,0-.19,0h-.24a.48.48,0,0,0-.2,0,.57.57,0,0,0-.16.11.46.46,0,0,0-.11.16.65.65,0,0,0,0,.2v1.36a.71.71,0,0,0,0,.2.57.57,0,0,0,.11.16.91.91,0,0,0,.16.11.71.71,0,0,0,.2,0h.24a.65.65,0,0,0,.19,0,.51.51,0,0,0,.31-.47Z"/><path class="cls-1" d="M43.1,40v-4.1h.35V40Zm1.61,0-1.2-1.46,1.2-1.46h.46L44,38.57,45.17,40Z"/><path class="cls-1" d="M45.72,36.4v-.47h.41v.47Zm0,3.63V37.11h.36V40Z"/><path class="cls-1" d="M48.81,39.56a1.07,1.07,0,0,1-.19.28.85.85,0,0,1-.27.18.78.78,0,0,1-.33.07h-.24a.75.75,0,0,1-.33-.07.86.86,0,0,1-.46-.46.75.75,0,0,1-.07-.33V37.91a.84.84,0,0,1,.07-.35.94.94,0,0,1,.46-.46,1,1,0,0,1,.34-.06H48a.92.92,0,0,1,.33.06,1.07,1.07,0,0,1,.28.19.88.88,0,0,1,.25.61v.69h-1.6v.65a.43.43,0,0,0,0,.19.39.39,0,0,0,.11.17.44.44,0,0,0,.16.1.46.46,0,0,0,.2,0H48a.49.49,0,0,0,.2,0,.48.48,0,0,0,.27-.27.65.65,0,0,0,0-.19v-.18l.35.06v.11A.88.88,0,0,1,48.81,39.56Zm-.28-1.67a.46.46,0,0,0-.05-.2.48.48,0,0,0-.27-.27.43.43,0,0,0-.19,0h-.24a.48.48,0,0,0-.2,0,.57.57,0,0,0-.16.11.5.5,0,0,0-.15.36v.43h1.26Z"/><path class="cls-1" d="M52.76,40l-.19-.3a.83.83,0,0,1-.3.26.75.75,0,0,1-.39.09h-.09a.75.75,0,0,1-.33-.06.92.92,0,0,1-.28-.19.88.88,0,0,1-.25-.61V37.91a.84.84,0,0,1,.07-.35.8.8,0,0,1,.18-.27,1,1,0,0,1,.27-.19,1,1,0,0,1,.34-.06h.09a.76.76,0,0,1,.36.08.73.73,0,0,1,.3.22V35.93h.35V40Zm-.23-2.14a.45.45,0,0,0,0-.2.36.36,0,0,0-.11-.16.46.46,0,0,0-.16-.11.45.45,0,0,0-.2,0h-.23a.45.45,0,0,0-.2,0,.51.51,0,0,0-.27.27.45.45,0,0,0,0,.2v1.36a.48.48,0,0,0,0,.2.51.51,0,0,0,.27.27.65.65,0,0,0,.2,0H52a.5.5,0,0,0,.36-.15.42.42,0,0,0,.11-.16.48.48,0,0,0,0-.2Z"/><path class="cls-1" d="M55.47,39.56A.86.86,0,0,1,55,40a.75.75,0,0,1-.33.07h-.24a.78.78,0,0,1-.33-.07.86.86,0,0,1-.46-.46.93.93,0,0,1-.07-.33V37.91a.84.84,0,0,1,.07-.35.9.9,0,0,1,.46-.46,1,1,0,0,1,.33-.06h.24a.92.92,0,0,1,.33.06.9.9,0,0,1,.46.46.8.8,0,0,1,.07.34v1.32A.83.83,0,0,1,55.47,39.56Zm-.28-1.67a.65.65,0,0,0,0-.2.51.51,0,0,0-.27-.27.48.48,0,0,0-.2,0h-.24a.43.43,0,0,0-.19,0,.46.46,0,0,0-.16.11.36.36,0,0,0-.11.16.45.45,0,0,0,0,.2v1.36a.48.48,0,0,0,0,.2.42.42,0,0,0,.11.16.5.5,0,0,0,.35.15h.24a.71.71,0,0,0,.2,0,.51.51,0,0,0,.27-.27.71.71,0,0,0,0-.2Z"/><path class="cls-1" d="M58.08,40l-.19-.3a.93.93,0,0,1-.3.26.81.81,0,0,1-.4.09H57.1a.75.75,0,0,1-.33-.06.92.92,0,0,1-.28-.19.88.88,0,0,1-.25-.61V37.11h.36v2.14a.48.48,0,0,0,0,.2.42.42,0,0,0,.11.16.5.5,0,0,0,.36.15h.23a.5.5,0,0,0,.36-.15.42.42,0,0,0,.11-.16.48.48,0,0,0,0-.2V37.11h.35V40Z"/><path class="cls-1" d="M60.81,40.73a.72.72,0,0,1-.18.25.74.74,0,0,1-.27.16,1,1,0,0,1-.34.06h-.14a1,1,0,0,1-.34-.06.82.82,0,0,1-.46-.41A.77.77,0,0,1,59,40.4h0a.77.77,0,0,1,.06-.3.85.85,0,0,1,.17-.25.58.58,0,0,1-.22-.22.72.72,0,0,1-.08-.32A.58.58,0,0,1,59,39a.55.55,0,0,1,.18-.22.73.73,0,0,1-.22-.3.76.76,0,0,1-.08-.36v-.22a.84.84,0,0,1,.52-.83,1,1,0,0,1,.34-.06h.14a.89.89,0,0,1,.39.09.83.83,0,0,1,.3.26l.19-.3h.12v1a.7.7,0,0,1-.06.35.92.92,0,0,1-.45.46.82.82,0,0,1-.34.06h-.51a.2.2,0,0,0-.11,0l-.1.06a.21.21,0,0,0-.06.1.26.26,0,0,0,0,.11.27.27,0,0,0,0,.12.18.18,0,0,0,.06.09l.1.07.11,0H60a1,1,0,0,1,.34.06.77.77,0,0,1,.27.17.64.64,0,0,1,.18.25.71.71,0,0,1,.07.32h0A.71.71,0,0,1,60.81,40.73Zm-.25-2.84a.45.45,0,0,0,0-.2.36.36,0,0,0-.11-.16.57.57,0,0,0-.16-.11.48.48,0,0,0-.2,0h-.3a.45.45,0,0,0-.2,0,.57.57,0,0,0-.16.11.46.46,0,0,0-.11.16.45.45,0,0,0,0,.2v.27a.45.45,0,0,0,0,.2.53.53,0,0,0,.27.27.45.45,0,0,0,.2,0h.3a.45.45,0,0,0,.2,0,.57.57,0,0,0,.16-.11.42.42,0,0,0,.11-.16.45.45,0,0,0,0-.2Zm0,2.48a.43.43,0,0,0,0-.19.45.45,0,0,0-.1-.14.56.56,0,0,0-.17-.09.64.64,0,0,0-.2,0h-.18l-.2,0a.65.65,0,0,0-.16.09.45.45,0,0,0-.1.14.33.33,0,0,0,0,.19v.05a.33.33,0,0,0,0,.19.45.45,0,0,0,.1.14.65.65,0,0,0,.16.09l.2,0h.18a.64.64,0,0,0,.2,0,.56.56,0,0,0,.17-.09.45.45,0,0,0,.1-.14.43.43,0,0,0,0-.19Z"/><path class="cls-1" d="M63.16,40V37.89a.65.65,0,0,0,0-.2.51.51,0,0,0-.27-.27.45.45,0,0,0-.2,0h-.23a.45.45,0,0,0-.2,0,.62.62,0,0,0-.17.11.44.44,0,0,0-.1.16.45.45,0,0,0,0,.2V40h-.35v-4.1h.35v1.42a.84.84,0,0,1,.3-.22.9.9,0,0,1,.36-.08h.09a1,1,0,0,1,.34.06,1,1,0,0,1,.27.19.88.88,0,0,1,.25.61V40Z"/><path class="cls-1" d="M48.77,29.43a.78.78,0,0,0-1-.1l-.3-1a.14.14,0,0,0-.12-.09.14.14,0,0,0-.13.09l-.3,1a3.08,3.08,0,0,0-2.92,0l-.3-1a.12.12,0,0,0-.14-.08.14.14,0,0,0-.13.09l-.3,1a.78.78,0,0,0-1,1.2l.44.43a3.13,3.13,0,1,0,5.79,2.39,3.17,3.17,0,0,0,0-2.42l.4-.4a.78.78,0,0,0,0-1.1Zm-.19.94-.46.44a.14.14,0,0,0,0,.15,2.88,2.88,0,1,1-5.2,2.47,2.93,2.93,0,0,1-.27-1.27A3,3,0,0,1,42.86,31a.11.11,0,0,0,0-.14l-.49-.47a.52.52,0,0,1,.69-.79s0,0,0,.05l.05.05a.11.11,0,0,0,.12,0,.11.11,0,0,0,.09-.09l.24-.75.23.77a.15.15,0,0,0,.19.08,2.87,2.87,0,0,1,2.94,0,.15.15,0,0,0,.19-.08l.23-.77.22.75a.14.14,0,0,0,.1.08.11.11,0,0,0,.12,0l0,0a.52.52,0,0,1,.74,0h0a.51.51,0,0,1,0,.73Z"/><path class="cls-1" d="M45.48,32.2a1.55,1.55,0,0,0-1.69,1.31,1.75,1.75,0,0,0,3.39,0A1.55,1.55,0,0,0,45.48,32.2Zm0,2.35c-.79,0-1.43-.46-1.43-1s.64-1,1.43-1,1.44.46,1.44,1-.64,1.05-1.44,1.05Z"/><path class="cls-1" d="M44.51,33c-.19,0-.33.2-.33.46s.14.46.33.46.32-.2.32-.46S44.69,33,44.51,33Zm0,.65a.32.32,0,0,1,0-.39.29.29,0,0,1,.07.2A.26.26,0,0,1,44.51,33.63Z"/><circle class="cls-1" cx="44.31" cy="31.67" r="0.26"/><circle class="cls-1" cx="46.66" cy="31.67" r="0.26"/><path class="cls-1" d="M46.46,33c-.18,0-.32.2-.32.46s.14.46.32.46.33-.2.33-.46S46.65,33,46.46,33Zm0,.65a.35.35,0,0,1,0-.39.26.26,0,0,1,.07.2A.23.23,0,0,1,46.46,33.63Z"/><path class="cls-1" d="M56.47,31.25a.12.12,0,0,0-.09-.09.12.12,0,0,0-.12,0,.86.86,0,0,1-.68.37.82.82,0,0,1-.72-.42.17.17,0,0,0-.12,0h-.1A1.07,1.07,0,0,1,53.57,30h0a1.36,1.36,0,0,1,0-.3l.06-.17a.17.17,0,0,0,0-.1.09.09,0,0,0-.07-.06.62.62,0,0,1-.39-.56v-.12a.72.72,0,0,1,.12-.27.11.11,0,0,0,0-.11.09.09,0,0,0-.09-.08H53a3.54,3.54,0,1,0,3.54,3.54A3.43,3.43,0,0,0,56.47,31.25Zm-3.09-1.54a.47.47,0,0,1-.75-.38h0a.45.45,0,0,1,.35-.46.83.83,0,0,0,.43.72ZM53,35.1a3.3,3.3,0,0,1,0-6.59h.09a.31.31,0,0,0,0,.12.71.71,0,0,0-.61.8.69.69,0,0,0,.7.61.62.62,0,0,0,.23,0v0a1.3,1.3,0,0,0,1.29,1.3h.06a1.09,1.09,0,0,0,1.6.21v.26A3.32,3.32,0,0,1,53,35.1Z"/><path class="cls-1" d="M51.45,30.15a.71.71,0,1,0,.71.71.71.71,0,0,0-.71-.71Zm0,1.18a.47.47,0,1,1,.47-.47.47.47,0,0,1-.47.47Z"/><path class="cls-1" d="M51.57,32.75a.6.6,0,1,0,.6.6h0a.58.58,0,0,0-.57-.6Zm0,.94a.36.36,0,1,1,.35-.36h0a.35.35,0,0,1-.34.35Z"/><path class="cls-1" d="M53.92,32.39a.95.95,0,1,0,.94,1h0A1,1,0,0,0,53.92,32.39Zm0,1.65a.71.71,0,0,1,0-1.41.71.71,0,1,1,0,1.41Z"/></g></g></g></g></svg>