<svg xmlns="http://www.w3.org/2000/svg" viewBox="0 0 319.6 319.6"><defs><style>.cls-1,.cls-5{fill:#231f20;}.cls-2{fill:#ffcd34;}.cls-3,.cls-7,.cls-8{fill:none;}.cls-3{stroke:#231f20;}.cls-3,.cls-7{stroke-linecap:round;stroke-linejoin:round;}.cls-4{fill:#ffcc4e;}.cls-5{opacity:0.79;isolation:isolate;}.cls-6{fill:#ffcd4f;}.cls-7{stroke:#d1a94d;stroke-width:2px;}.cls-8{stroke:#000;stroke-miterlimit:10;stroke-width:3px;stroke-dasharray:12.13 12.13;}</style></defs><title>mookie cart_1</title><g id="Layer_2" data-name="Layer 2"><g id="Layer_3" data-name="Layer 3"><path class="cls-1" d="M79.92,150.75c-.88,16.41-5.09,32.24-9.42,48a1.09,1.09,0,0,0,.76,1.35,1.11,1.11,0,0,0,1.36-.76c4.4-16,8.64-32,9.5-48.61C82.2,149.33,80,149.34,79.92,150.75Z"/><path class="cls-1" d="M83.15,129.88a89.88,89.88,0,0,1-16.31,11.76c-5.38,3-10.92,5.6-16.4,8.39-5.9,3-22.1,9.23-20.55,18.32.65,3.68,5.11,5.62,8.23,6.74a23.48,23.48,0,0,0,12.38.82c8.86-1.7,16.31-7.78,21.28-15.1.79-1.17-1.11-2.27-1.9-1.11-4.56,6.71-11.32,12.24-19.37,14a21.48,21.48,0,0,1-11.78-.7c-3.21-1.17-7.25-3.91-6-7.73.88-2.64,4.18-5.1,6.36-6.5,7.39-4.77,15.58-8.32,23.37-12.32,4.22-2.16,8.38-4.41,12.4-6.95,3.72-2.34,6.53-5.17,9.82-8.05,1.08-.93-.49-2.48-1.55-1.55Z"/><path class="cls-1" d="M105.94,109.73c-3.36-8.1-2.44-17.15,1-25.09a1.12,1.12,0,0,0-.43-1.52.67.67,0,0,0-.23-.1,5.14,5.14,0,0,0-4.77,1.22c-1.1.88.47,2.45,1.55,1.55l2.64-.65L105,83.53c-3.6,8.45-4.75,18.11-1.18,26.79.54,1.28,2.65.72,2.14-.59Z"/><path class="cls-1" d="M105.17,82.78a40.86,40.86,0,0,0-24.09,29.84c-.25,1.39,1.87,2,2.12.59a38.84,38.84,0,0,1,23.08-28.48c1.3-.56.18-2.45-1.11-1.91Z"/><path class="cls-1" d="M134.11,199.66c23.36-2.83,45.6-11.44,69-13.67,1.4-.13,1.42-2.33,0-2.2-23.45,2.26-45.68,10.84-69,13.67C132.72,197.63,132.71,199.83,134.11,199.66Z"/><path class="cls-1" d="M133.19,210.85a14.36,14.36,0,0,1-2.64-2.52c-.44-.39-1.43-.76-1.76-1.23l-.71-1.68,1.76.07,11.44.41c1.42,0,1.42-2.15,0-2.2l-10.83-.39c-1.62-.06-4.53-.88-5.37,1-.56,1.32.27,2.76,1.21,3.67s2.36,1.51,3.37,2.53a10.84,10.84,0,0,0,2.46,2.22,1.1,1.1,0,0,0,1.11-1.9Z"/><path class="cls-1" d="M187.45,197c3.41,0,6.51-1.35,9.85-1.65,1.38-.12,4.74-.42,3.36,1.91-.62,1.08-1.95,1.77-2.64,3s1.21,2.36,1.9,1.12c1.37-2.47,7.34-4.94,2.57-7.42s-10.22.88-15.07.88a1.1,1.1,0,0,0,0,2.2Z"/><path class="cls-1" d="M203,230.74q2.64-12.39,5.33-24.79c1.57-7.35,3.08-14.61,2.21-22.16a1.14,1.14,0,0,0-.8-1.06c-27.64-6.44-59.18-8-85.39,4.54-1.28.61-.17,2.51,1.11,1.89,19.12-9.12,41.05-10.16,61.83-8a170.51,170.51,0,0,1,17,2.65c2.92.6,4.31.81,4.4,4.07a50.55,50.55,0,0,1-.82,9.43c-1.84,11-4.59,21.95-6.94,32.88-.3,1.38,1.82,2,2.12.59Z"/><path class="cls-1" d="M228.37,131.91c5.15,10.12,12.32,21.47,21.53,28.38,7.44,5.58,18.29,8,26.14,1.76,2.64-2.12,4.4-4.11,2.09-7-3.47-4.28-9.68-7.4-14.32-10.13-11.55-6.81-24.37-12.59-34.28-21.78-1-1-2.6.59-1.56,1.55,7,6.47,15.33,11,23.54,15.7,3.88,2.22,27.2,13.43,24.86,18.28-1.84,3.81-8.94,5.06-12.57,4.84-5.82-.33-11.17-3.52-15.35-7.36-7.5-6.93-13.58-16.38-18.18-25.42-.65-1.27-2.55-.15-1.9,1.11Z"/><path class="cls-1" d="M209,96.49c6-10.36.08-23.51-10.41-28.17-1.28-.57-2.41,1.33-1.12,1.9,9.39,4.15,15.12,15.74,9.62,25.14A1.1,1.1,0,1,0,209,96.47h0Z"/><path class="cls-1" d="M204.16,73.41c13.2,6.33,27,17.21,25.39,33.46-.13,1.4,2.07,1.39,2.21,0,1.69-17-12.61-28.7-26.48-35.35-1.28-.61-2.4,1.29-1.11,1.9Z"/><path class="cls-1" d="M235.35,163.22c1.17,8.46,1.4,17.11,3.52,25.42.8,3.14,2.18,6,3.06,9.11,1.29,4.49.13,6.89-2.07,10.81-3.05,5.44-9.59,10.66-14.51,14.65-3.38,2.74-7.87,6.3-12.41,6.26-3.41,0-6.71-1.31-10.13-1.5-1.42-.08-1.41,2.12,0,2.2,3.86.22,7.67,1.85,11.56,1.45,3.73-.39,7.19-2.84,10.13-5a88.56,88.56,0,0,0,9.05-7.93c2.69-2.64,6.39-5.28,8.29-8.44,3.62-6,3.17-10.56.78-17-3.62-9.8-3.74-20.34-5.17-30.6-.19-1.39-2.31-.8-2.12.59Z"/><path class="cls-1" d="M70.9,198.35C72.15,205,78.2,210.76,82.18,216c4.25,5.56,8.33,11.44,13.32,16.36,4.31,4.26,9.53,7.93,15.52,9.32,7.15,1.68,14.19-.47,21-2.7,1.34-.44.77-2.56-.58-2.12-6.61,2.18-13.55,4.4-20.51,2.51-6.41-1.72-11.65-6.05-16-10.86s-7.92-9.9-11.77-14.92c-3.58-4.7-9-9.81-10.07-15.79-.26-1.39-2.38-.8-2.12.59Z"/><path class="cls-1" d="M118.66,206.88c2.73,13.38,9.53,37.47,27.46,34.33,9.86-1.76,19.21-5.74,29.15-7.36a314,314,0,0,1,34-3.19c1.42-.07,1.42-2.27,0-2.2-18.4.94-36.36,2.95-54.09,8.06-4.13,1.19-8.64,3-13,2.89-5.22-.14-9-3.57-11.72-7.73-5-7.52-7.87-16.6-9.69-25.37-.28-1.38-2.4-.8-2.12.59Z"/><path class="cls-2" d="M140.25,234a1.32,1.32,0,1,0,1.32,1.32A1.32,1.32,0,0,0,140.25,234Z"/><path class="cls-2" d="M198.62,215.89c-6.16.88-12.32-.54-18.48-.66A42.14,42.14,0,0,0,165,217.77a22.75,22.75,0,0,0-4.95,3.07c-1.67,1.15-3.69,1.68-5.36,2.86a28.56,28.56,0,0,1-5.78,3.42c-1.23.52-2.42,1.09-3.59,1.7a1.28,1.28,0,0,1-.52.71,34.25,34.25,0,0,0-4.34,3.11,1.51,1.51,0,0,1-.54.33,3.26,3.26,0,0,0,2.59,3.82l.37.05c3.12.32,5.82-1.76,8.8-2.43a34,34,0,0,0,10.21-4.16c7.48-4.41,17.88-6.71,26.51-6.39a2.63,2.63,0,0,0,2.75-1.76,49.52,49.52,0,0,0,9.11-.28C204.18,221.27,202.5,215.32,198.62,215.89Z"/><path class="cls-1" d="M137.11,236.81c5.53,2.13,11.07-.41,16.29-2.37a212.2,212.2,0,0,1,20.12-6.91,154.84,154.84,0,0,1,22-3.79c3.7-.44,7.18-1.2,9.27-4.52.76-1.2-1.14-2.31-1.9-1.11-2.74,4.34-10.1,3.61-14.53,4.21a127.36,127.36,0,0,0-17.05,3.52c-5.28,1.47-10.37,3.38-15.48,5.33-5.49,2.09-12.28,5.79-18.16,3.52-1.32-.51-1.89,1.61-.59,2.12Z"/><path class="cls-1" d="M128.92,232.71c1.14,3.86,5.23,5,8.76,3.64,2.24-.83,4-2.57,5.84-4a94.11,94.11,0,0,1,11.15-7.4c7.24-4.25,14.31-8.19,22.82-9s16.88.77,25.08,2.64c1.39.31,2-1.81.58-2.12-12.23-2.74-25.31-4.79-37.3.11a109.56,109.56,0,0,0-15.75,8.56c-3.27,2-16.84,14.61-19.06,7a1.1,1.1,0,1,0-2.12.59Z"/><line class="cls-3" x1="202.06" y1="219.63" x2="161.9" y2="219.63"/><line class="cls-3" x1="176.35" y1="219.63" x2="176.35" y2="214.95"/><line class="cls-3" x1="184.99" y1="219.63" x2="184.99" y2="215.45"/><line class="cls-3" x1="192.74" y1="219.63" x2="192.74" y2="216.8"/><line class="cls-3" x1="171.77" y1="219.63" x2="171.77" y2="226.87"/><line class="cls-3" x1="181.98" y1="219.63" x2="181.98" y2="223.25"/><line class="cls-3" x1="189.59" y1="219.63" x2="189.59" y2="222.13"/><line class="cls-3" x1="165.59" y1="220.19" x2="165.59" y2="228.12"/><line class="cls-3" x1="158.84" y1="222.13" x2="158.96" y2="230.17"/><line class="cls-3" x1="152.24" y1="226.15" x2="152.24" y2="232.61"/><line class="cls-3" x1="146.52" y1="229.38" x2="146.53" y2="235.71"/><path class="cls-4" d="M52.16,177.33l-.08.14H54c-.53-1.24-1.37-2.21-2-3.4s-.54-2.69-.88-4a1.08,1.08,0,0,0-.77-.8,13.11,13.11,0,0,0-2.26-.1l.56,2.05,1.18-.16c.88,0,1.53-1.29.77-1.88-1.12-.88-2.36-2.27-3.75-2.64-1.64-.37-3.79,0-5.48,0v2.2l6.16-.44c.7-.06,5.8-.88,6.16-.46a14.21,14.21,0,0,1,0,2.92c.11.88.2,1.84.28,2.76.11,1.11.21,2.22.29,3.34l.08,1.11q.64,1.4-.75,1.32c-1.58.75-4.15.48-5.88.61-.92.1-1.85.15-2.78.16-2.3-.06-2.13.13-2.37-1.63s-.26-3.87-.49-5.79c-.11-1-.32-2-.38-3.06s-.61-.77.16-.75l-1.1-1.1c0,1.15.1,2.26.12,3.4a1.11,1.11,0,0,0,2.21,0v-1.88a1.11,1.11,0,0,0-2.21,0v3.94A1.12,1.12,0,0,0,42,174.22a1.09,1.09,0,0,0,1-.77,12.62,12.62,0,0,0,.41-2.8H41.24v4.76c0,1.46,2,1.37,2.21,0a29.29,29.29,0,0,0,.23-4.08,1.1,1.1,0,1,0-2.2,0c0,2,0,4,.08,6a1.1,1.1,0,0,0,2.2,0q.08-2.7,0-5.4a1.1,1.1,0,0,0-2.2,0v4.52a1.1,1.1,0,0,0,2.2,0v-8.34a1.1,1.1,0,0,0-2.2,0,79.67,79.67,0,0,0,.72,9.25c.14,1.1,1.93,1.63,2.16.29.45-2.64.78-5.21,1-7.84h-2.2v5.81a1.1,1.1,0,1,0,2.2,0V169a1.1,1.1,0,0,0-1.11-1.09,1.11,1.11,0,0,0-1.05.79c-.25,1.13-.46,2.24-.63,3.38s1,2,1.84,1.07,2.57-2.54,1.7-3.88a1.12,1.12,0,0,0-1.51-.4l-.15.09a1.08,1.08,0,0,0-.55.94v.21a1.09,1.09,0,0,0,.55,1,2.3,2.3,0,0,0,3.1-1,2.53,2.53,0,0,0,.19-.48,1.11,1.11,0,0,0-.28-1.08c-1.3-1.05-2.64-.88-4.06-.17a1.1,1.1,0,0,0-.36,1.52,1,1,0,0,0,.62.48,8.57,8.57,0,0,0,4.21,0,1.13,1.13,0,0,0,.81-1.06V169A1.09,1.09,0,0,0,48,168a16.24,16.24,0,0,0-5.85-.5c-1.16.12-1.57,1.85-.29,2.17a40.31,40.31,0,0,0,6.17,1c1.26.11,1.47-1.85.3-2.16a22.93,22.93,0,0,0-3.08-.59v2.2a23,23,0,0,0,5.92-.3,1.1,1.1,0,0,0-.29-2.16,34.58,34.58,0,0,0-3.8-.15,1.1,1.1,0,0,0,0,2.2,26.73,26.73,0,0,0,3.58,0,1.1,1.1,0,1,0,0-2.2h-2v2.2a32.19,32.19,0,0,0,3.52-.32c1.31-.18.88-2-.29-2.16a40.57,40.57,0,0,0-4.4-.18v2.22q1.47-.14,2.94-.36c1.22-.18.93-2.21-.3-2.16l-1.36.06a1.1,1.1,0,0,0,0,2.2h3.94v-2.2l-1.49,0,.56,2.05.44-.17-1.24-.51a11.09,11.09,0,0,1,.58,2.42,1.11,1.11,0,0,0,1.39.73,1.09,1.09,0,0,0,.73-.73,18.49,18.49,0,0,0,.28-2H51.68l.14,1.91a1.1,1.1,0,0,0,2.2,0v-2.15h-2.2c0,.67.11,1.32.18,2a1.1,1.1,0,0,0,2.2,0v-1.68H52.11l.19,1.56a1.1,1.1,0,0,0,2.2,0l.09-1.66h-2.2v1a1.1,1.1,0,0,0,2.2,0,8.78,8.78,0,0,0-.05-1.62,1.1,1.1,0,0,0-2.2,0v.88l2.16-.3a6.72,6.72,0,0,0-.51-1.51,1.1,1.1,0,0,0-1.52-.38,1.05,1.05,0,0,0-.49.64,6.75,6.75,0,0,0-.18,2.45,1.11,1.11,0,0,0,1.14,1.07,1.09,1.09,0,0,0,1-.77l.14-.37H52l.35,1.92c.23,1.29,2.07.88,2.16-.29L54.6,170H52.4l.13,2.71a1.1,1.1,0,1,0,2.2,0,18.57,18.57,0,0,0,0-2.11h-2.2c.1,1,.22,1.94.38,2.91.21,1.28,2.11.88,2.16-.29l.07-1.76H53c0,1,0,1.94-.07,2.92h2.2v-.54h-2.2a14.25,14.25,0,0,0,.21,1.46c.24,1.24,2.15.88,2.16-.29v-1.55h-2.2v2.37h2.2l-.08-1.4a1.1,1.1,0,0,0-2.2,0,10.75,10.75,0,0,0,0,1.39,1.1,1.1,0,0,0,2.2,0v-1.47a1.1,1.1,0,0,0-2.2,0v1.49l2.16-.29-.25-1.82c-.19-1.29-2.1-.88-2.17.29l-.12,2.25h2.12v-.43c-.1-1.4-2.27-1.41-2.2,0a8.72,8.72,0,0,0,.21,1.76,1.11,1.11,0,0,0,2.12,0l.2-.88-2.16-.3a11.73,11.73,0,0,0,.16,2.14,1.1,1.1,0,0,0,2.2,0l.13-1.11h-2.2a10.46,10.46,0,0,1,0,1.48l2.16-.29-.19-.48a1.11,1.11,0,0,0-1.39-.74,1.13,1.13,0,0,0-.62.47l-.39.68h1.93c-1-1.52-2-1.63-3.44-.52a1.12,1.12,0,0,0-.36,1.53,1.1,1.1,0,0,0,.91.52,4.26,4.26,0,0,0,1.51,0l-1-1.39c.22-.51,0-.59-.57-.28a1.11,1.11,0,0,0,.29,2.17l2-.15a1.1,1.1,0,1,0,0-2.2,17.5,17.5,0,0,0-2.29,0l.55,2.05L53,180c1-.47.45-2-.56-2a24.4,24.4,0,0,0-3.52.16,1.1,1.1,0,0,0,0,2.2,12.83,12.83,0,0,0,2.32,0v-2.2a11.23,11.23,0,0,0-1.64.15,1.1,1.1,0,0,0,0,2.2l1.26.1v-2.2l-2,.12a1.1,1.1,0,0,0,0,2.2l2.76.11-.29-2.17-.39.15.58,2.12.2-.07a1.11,1.11,0,0,0-.29-2.17,17.67,17.67,0,0,0-1.77-.1v2.2h1.55a1.1,1.1,0,1,0,0-2.2c-1.23,0-2.46-.07-3.69-.13l.55,2.05.3-.17a1.12,1.12,0,0,0,.36-1.53,1.1,1.1,0,0,0-.91-.52,12.93,12.93,0,0,0-1.76.15c-1.28.19-.88,2.13.29,2.17s2.59.07,3.89.09v-2.2l-1.27,0v2.2h.34c1.39-.12,1.43-2.28,0-2.2a17,17,0,0,0-2,.21c-.88.13-1,1.29-.48,1.84l.15.18.48-1.83-2,.35.59,2.12a8.72,8.72,0,0,0,2-.73c1.11-.52.4-1.94-.55-2.05l-2.6-.32.29,2.17,1.1-.43a1.1,1.1,0,1,0-.59-2.12,4.78,4.78,0,0,0-1.85.66c-1,.54-.44,2,.56,2.05a3.4,3.4,0,0,0,1.76-.17c1.16-.34,1-2.24-.29-2.17a8.42,8.42,0,0,0-1.94.29,1.1,1.1,0,0,0,.29,2.16,2.18,2.18,0,0,0,1.76-.54,1.11,1.11,0,0,0-.55-2.05,3.12,3.12,0,0,0-1.89.41c-1.09.5-.42,2,.56,2,1.76.14,2.64-.5,3.71-1.83A1.14,1.14,0,0,0,48,177.5l-.25-.34a1.14,1.14,0,0,0-1.25-.51,7.24,7.24,0,0,0-2.53,1.54,1.11,1.11,0,0,0,0,1.57,1.08,1.08,0,0,0,1,.27,3.26,3.26,0,0,0,2.35-2,1.11,1.11,0,0,0-.42-1.51,1.13,1.13,0,0,0-.53-.14,9.85,9.85,0,0,0-5.53,1.43,1.11,1.11,0,0,0,.55,2.05,6.93,6.93,0,0,0,3.52-1l-1.62-1.24-.23.88a1.1,1.1,0,1,0,2.12.59l.18-.58c.32-1-.81-1.61-1.62-1.24a3.26,3.26,0,0,0-1.66,1.55,1.1,1.1,0,0,0,0,1.11l.13.22a1.14,1.14,0,0,0,1.51.4l.75-.39c1.28-.64.16-2.46-1.12-1.89a3.29,3.29,0,0,0-1.46,1,1.11,1.11,0,0,0,0,1.57,1.07,1.07,0,0,0,.45.26c1.3.4,2.25-.5,3.33-1.18l-1.55-1.57a3.85,3.85,0,0,0-.58,1.4,1.1,1.1,0,0,0,.81,1.34,1,1,0,0,0,.54,0l1.08-.21-.88-2-.51.39a1.11,1.11,0,0,0-.35,1.53,1.08,1.08,0,0,0,.91.52c1.76.14,3.41.15,4.72-1.08a1.09,1.09,0,0,0,.28-1.07l-.13-.33a1.11,1.11,0,0,0-1-.81,4,4,0,0,0-1.53.34,1.11,1.11,0,0,0,.59,2.13,13.68,13.68,0,0,0,4.71-1.89,1.1,1.1,0,0,0,.36-1.52,1.13,1.13,0,0,0-.63-.49l-.29-.08.48,1.84a2.72,2.72,0,0,0,.88-1.33,1.11,1.11,0,0,0-1.35-1.36,15.91,15.91,0,0,0-3.78,1.83,1.1,1.1,0,0,0,1.12,1.9,5.42,5.42,0,0,0,2.52-2.14,1.12,1.12,0,0,0-.42-1.52,1.1,1.1,0,0,0-.53-.14,3.56,3.56,0,0,0-3,1.23,1.11,1.11,0,0,0,1.07,1.83c1.6-.27,3.45-.6,4.33-2.1a1.12,1.12,0,0,0-.44-1.51,1.14,1.14,0,0,0-.81-.1,6.09,6.09,0,0,0-2.64,1.06,1.1,1.1,0,0,0,1.11,1.9A7.94,7.94,0,0,0,53,176.46a1.12,1.12,0,0,0-1.34-1.76,24.08,24.08,0,0,0-2,1.33l1.5,1.5a2.4,2.4,0,0,0,.5-1.53,1.12,1.12,0,0,0-1.14-1.1.75.75,0,0,0-.26,0,4.42,4.42,0,0,0-2.23,1.14c-1.08.95.47,2.41,1.56,1.56a6,6,0,0,0,2.12-3.14c.28-.88-.58-1.47-1.36-1.36l-.37.06c-.52.07-.75.62-.81,1.06v.21c-.1.88,1,1.29,1.66.95a4.64,4.64,0,0,0,1.38-.88L50.72,173l-.38.81a1.1,1.1,0,1,0,1.76,1.33,2.82,2.82,0,0,0,.73-.77c.88-1.09-.63-2.64-1.56-1.56a4,4,0,0,0-1,1.69,1.11,1.11,0,0,0,1.62,1.24,2.32,2.32,0,0,0,1.36-1.68,1.12,1.12,0,0,0-.82-1.35,1.11,1.11,0,0,0-.8.1,2.9,2.9,0,0,0-1.45,2.48,1.12,1.12,0,0,0,1.16,1.08,1.16,1.16,0,0,0,.73-.3,7.67,7.67,0,0,0,1.4-1.89l-2.06-.56-.07,1c-.09,1.35,1.76,1.34,2.17.29l.21-.52-2.12-.58-.15.66,2.17.29a10,10,0,0,0,.08-2,1.1,1.1,0,0,0-1.14-1.08,1.13,1.13,0,0,0-.91.52,12.46,12.46,0,0,0-.68,1.59l2.16.29c-.13-1.46,0-3.65-1.37-4.52a1.14,1.14,0,0,0-1.51.4,10.45,10.45,0,0,0-.72,1.51l2.05.56.13-1.49H49.47v1a1.11,1.11,0,0,0,2.16.3,14,14,0,0,0,.5-1.38H50l.24,1.56a1.1,1.1,0,1,0,2.2,0l.08-1.09-2.05.55.26.48a1.12,1.12,0,0,0,1.54.35,1.08,1.08,0,0,0,.48-.61,3.73,3.73,0,0,0,.41-1.5L51,170l.15,1.61c.14,1.39,2.31,1.41,2.2,0a17.33,17.33,0,0,0-.25-1.9c-.21-1.13-1.82-1-2.12,0a5.11,5.11,0,0,0-.32,1.28h2.12l-.1-.41a1.11,1.11,0,0,0-1.39-.74,1.09,1.09,0,0,0-.73.74l-.2.61h2.12l-.65-3a1.11,1.11,0,0,0-2.12,0,35,35,0,0,0-.7,4.32h2.21l.06-1.37c.05-1.21-2-1.53-2.17-.29l-.18,1.12h2.13l-.19-1.08c-.18-1.1-1.88-1-2.12,0-.19.84-.35,1.7-.46,2.57h2.21c.07-1,.14-1.92.23-2.87h-2.2l.13,2.46a1.1,1.1,0,1,0,2.2,0l.17-1.64-2.16.29.41,1.43a1.11,1.11,0,0,0,1.39.74,1.12,1.12,0,0,0,.73-.74l.3-.88-2.24-.32-.08.93h2.2v-.67c.06-1.34-1.76-1.36-2.17-.29-.24.59-.48,1.2-.72,1.76h2.12l-.2-1.43a1.1,1.1,0,0,0-2.16-.3,9.49,9.49,0,0,0-.58,1.62,1.1,1.1,0,0,0,2,.88l.37-.66-2-.55a13.14,13.14,0,0,0-.12,1.53,1.1,1.1,0,0,0,1.1,1.1h.4l-1-1.65L48,175a1.1,1.1,0,1,0,1.33,1.76h0l.51-.25L48.32,175a17.56,17.56,0,0,1-1.12,2.1c-.76,1.2,1.14,2.3,1.9,1.11l.15-.24-2-.88-.1.3c-.37,1.16,1.06,1.68,1.84,1.07l.52-.4-1.56-1.55-.4.47.78,1.89v-.06l-1.76-1.34-.13.31c-.28.67,0,1.76.95,1.65a1.62,1.62,0,0,0,1.4-.76,1.12,1.12,0,0,0,0-1.12c.1.17.93-1.09.88-1,.64-1-.59-2-1.5-1.51l-1.47.79L48,177.53a5.47,5.47,0,0,1,1.46-1.25c1.06-.89-.3-2.19-1.33-1.77l-1.42.6L48,176.73l.29-.67c.31-.69,0-1.76-1-1.65l-.64,0,.55,2.05.69-.45-1.34-1.76-.88.52,1.12,1.9.35-.21A1.1,1.1,0,1,0,46,174.59h0a3.83,3.83,0,0,0-1.41,1.21,1.12,1.12,0,0,0,.18,1.33,1.31,1.31,0,0,0,1.26.47,1.11,1.11,0,0,0,0-2.21h-.41v2.21h.78a1.11,1.11,0,0,0,.29-2.17l.38.27a1.09,1.09,0,0,0-1-.54h-.6l.76,1.34v-.13c.17-.88-.74-1.81-1.62-1.24l-.08.06,1.61,1.24v-.16a1.12,1.12,0,0,0-.83-1.35,1.09,1.09,0,0,0-.79.11l-.64.28,1.18,1.85.93-.47L45,174.79l-.51.37,1.34,1.76,1.41-1.18a1.12,1.12,0,0,0,0-1.58,1.15,1.15,0,0,0-.74-.31h-.34l.55,2.06c.53-.38,1.07-.73,1.64-1.06a1.1,1.1,0,0,0,.27-1.53,1.08,1.08,0,0,0-1.38-.36l-.88.53a1.12,1.12,0,0,0-.36,1.53,1.1,1.1,0,0,0,.91.52l.31.05-1.06-1.4-.22.55c-.39,1,.88,1.63,1.62,1.25a4.77,4.77,0,0,0,1.5-.93,1.11,1.11,0,0,0,.36-1.54,1,1,0,0,0-.36-.36l.16-.13a1.11,1.11,0,0,0-1.1-1.1,14.8,14.8,0,0,0-2.64.58l1.06,1.84,1.11-.66-1.08-1.82-.45.42c-.94.88.26,2.29,1.34,1.76l2.14-1.12L48,171.42l-.23.37,1.07,1.84,0,0A1.1,1.1,0,1,0,47.34,172l-1.05.84,1.56,1.55c.68-.67,1.37-1.31,2.09-1.94,1-.88-.26-2.32-1.33-1.76l-.79.44,1.66.95.05-1A1.12,1.12,0,0,0,48.4,170a1.28,1.28,0,0,0-.53.15,5,5,0,0,0-1.41,1L48,172.73l.71-.59-1.51-1.51a7.65,7.65,0,0,1-1.29,1.54l1.76,1.33,1.13-1.93a1.1,1.1,0,0,0-.33-1.54,1.12,1.12,0,0,0-1.43.2,8.29,8.29,0,0,0-1.31,1.46c-.88,1.08.6,2.64,1.56,1.55.65-.72,1.31-1.44,2-2.14l-1.76-1.34-.44,1a1.1,1.1,0,0,0,1.9,1.11h0l.57-.74c.88-1.14-1-2.22-1.91-1.12l-1.18,1.11,1.34.17-.33-.34a1.14,1.14,0,0,0-1.34-.18,12.26,12.26,0,0,0-2.09,2l1.83,1.07.36-.88-2-.88-.05.32a1.1,1.1,0,0,0,2.12.58l.12-.34a1,1,0,0,0-.28-1.07c.33.59.74.66,1.24.24l-.3-2.17c-2.24.45-1.92,3.35-3.05,4.13l1.33.17-.2-.16v1.56l.18-.19-1.33.18.22.11c1.25.67,2.37-1.23,1.12-1.9l-.23-.11a1.13,1.13,0,0,0-1.34.16l-.18.19a1.12,1.12,0,0,0,0,1.56l.2.15a1.14,1.14,0,0,0,1.34.18,4.55,4.55,0,0,0,1-.66c.65-.7.27-3,1.57-3.25s.83-2-.29-2.15a4,4,0,0,0-3,1.36,2.29,2.29,0,0,0-.36,1.16,1,1,0,0,0,.15.56c.25.37.25.28,0-.29l2.12.58.06-.32a1.11,1.11,0,0,0-2-.88,2.73,2.73,0,0,0-.57,1.42c-.17,1,1.07,2,1.84,1.06a8.27,8.27,0,0,1,1.66-1.63l-1.34-.16.33.33a1.14,1.14,0,0,0,1.34.18,7.38,7.38,0,0,0,2-1.9L47.71,170l-.57.75,1.9,1.11.44-1c.48-1.07-.79-2.3-1.76-1.34-.67.71-1.33,1.42-2,2.15l1.56,1.55a8.59,8.59,0,0,1,1.31-1.45l-1.76-1.34-1.13,2a1.11,1.11,0,0,0,1.76,1.33,15.45,15.45,0,0,0,1.63-2c.61-.88-.63-2.16-1.51-1.51a10.24,10.24,0,0,0-1.13.94c-1,1,.51,2.51,1.55,1.55l1-.67-1.65-.95,0,1a1.1,1.1,0,0,0,1.12,1.09,1.08,1.08,0,0,0,.53-.14l.79-.44-1.34-1.76c-.71.63-1.4,1.27-2.09,1.94-1,1,.48,2.4,1.56,1.55l1-.83-1.55-1.55-.05.05a1.11,1.11,0,0,0,1.07,1.84c.7-.13,1.18-.88,1.56-1.38.68-1-.61-2-1.51-1.51l-2.15,1.12,1.34,1.76.44-.41c.76-.72,0-2.28-1.06-1.84a6.48,6.48,0,0,0-2.09,1.23c-.88.69.07,2.15,1.07,1.83a9.5,9.5,0,0,1,2-.5L46.9,173v.88a1,1,0,0,0,.54.94l.42.25v-1.91a5,5,0,0,1-1.5.94L48,175.37l.23-.56c.29-.74-.44-1.32-1.07-1.39l-.3,0,.56,2.05.88-.55L47.16,173a19,19,0,0,0-1.64,1,1.11,1.11,0,0,0,.56,2.05h.34l-.77-1.87-1.41,1.17c-1,.8.31,2.47,1.33,1.77l.51-.37A1.1,1.1,0,0,0,45,174.88l-.88.47c-1.28.65-.16,2.47,1.11,1.9l.63-.28-1.65-1.31v.17c-.14.88.75,1.82,1.62,1.24l.1-.06-1.62-1.25v.14a1.13,1.13,0,0,0,.77,1.35c.64.16.28-.16.41-.16s.62.4.77.44l.29-2.16h-.78a1.1,1.1,0,0,0,0,2.2h.41v-2.2l.3.17.16,1.34.62-.41-1.11-1.9-.36.21a1.1,1.1,0,0,0,1.12,1.9h0a6,6,0,0,0,1.35-.88c1-.77-.3-2.42-1.34-1.76l-.68.45c-.88.56-.62,2.14.55,2l.65,0-.95-1.66-.29.66c-.34.76.24,2,1.24,1.62.66-.26,1.29-.53,1.94-.82L48,174.54a5.85,5.85,0,0,0-1.34,1.24A1.11,1.11,0,0,0,48,177.54l1.47-.79-1.58-1.36c-.4.6-1,1.06-1.17,1.83a1.89,1.89,0,0,0,.06.82c.36,1.09-.41-.72.73-.83l.95,1.65.13-.3c.44-1-.88-2.4-1.76-1.33l-.05.06a1.11,1.11,0,0,0,0,1.57,1.06,1.06,0,0,0,.73.3,2.9,2.9,0,0,0,2-1.12c1-1-.48-2.4-1.56-1.55l-.51.39L49.29,178l.1-.3c.39-1.23-1.36-1.88-2-.88l-.15.23,1.9,1.11A16.86,16.86,0,0,0,50.26,176a1.11,1.11,0,0,0-1.51-1.51l-.51.26,1.34,1.76a15.67,15.67,0,0,0,1-1.28,1.11,1.11,0,0,0-.42-1.51,1.14,1.14,0,0,0-.54-.14h-.39l1.1,1.1a13,13,0,0,1,.11-1.53c.12-1.12-1.55-1.46-2-.56l-.37.66,2,.88a8.61,8.61,0,0,1,.58-1.61l-2.17-.29a11.44,11.44,0,0,0,.29,2c.25,1.16,1.76.88,2.12,0,.23-.61.47-1.21.72-1.81l-2.16-.29v.67c-.07,1.43,2.09,1.39,2.2,0l.08-.92c.11-1.29-1.76-1.44-2.16-.3l-.29.88h2.12L51,171.08a1.1,1.1,0,0,0-2.15.3L48.62,173h2.2l-.12-2.47a1.1,1.1,0,0,0-2.2,0c-.09.95-.17,1.91-.24,2.87-.1,1.45,2,1.37,2.2,0a15.17,15.17,0,0,1,.38-2H48.72l.17,1.09a1.12,1.12,0,0,0,1.38.75,1.09,1.09,0,0,0,.75-.75l.19-1.12L49,171.11,49,172.47c-.07,1.44,2.06,1.38,2.2,0a29.49,29.49,0,0,1,.63-3.72H49.69l.65,3a1.1,1.1,0,0,0,1.38.74,1.12,1.12,0,0,0,.74-.74l.19-.62H50.53l.11.42c.25,1,1.93,1.1,2.12,0a4.71,4.71,0,0,1,.32-1.28H51l.17,1.31h2.2l-.15-1.6c-.11-1.13-1.93-1.61-2.16-.29a4,4,0,0,1-.42,1.5l2-.27-.26-.47a1.12,1.12,0,0,0-1.53-.36,1.1,1.1,0,0,0-.52.91l-.08,1.09h2.2c-.08-.77-.17-1.37-.31-2.14-.22-1.14-1.81-.95-2.13,0-.14.47-.31.93-.49,1.38l2.15.29v-1a1.1,1.1,0,0,0-2.2,0l-.13,1.48c-.09,1.06,1.63,1.56,2.05.56a10.56,10.56,0,0,1,.72-1.52l-1.5.4s.23,2.15.28,2.64A1.11,1.11,0,0,0,52,175.24a1.09,1.09,0,0,0,1-.77l.46-1.06-2-.56a10.8,10.8,0,0,1-.09,2c-.11,1.24,1.9,1.5,2.17.29l.14-.66a1.1,1.1,0,0,0-2.12-.58l-.21.52,2.15.29.07-1a1.1,1.1,0,0,0-2-.55,3.89,3.89,0,0,1-1.06,1.44l1.87.79.35-.58L51,173.56l-.34.37,1.61,1.25.39-.72-1.56-1.56a2.72,2.72,0,0,1-.73.78L52.17,175l.38-.81C53,173.33,52,172,51,172.7a4.72,4.72,0,0,1-1.37.88l1.65.95v-.21l-.81,1.07.38-.07L49.54,174A3.44,3.44,0,0,1,48,176.14l1.56,1.56,1.26-.58-1.4-1.06-.19.43c-.61.88.63,2.15,1.51,1.5a22.7,22.7,0,0,1,2-1.33L51.4,174.9a4.42,4.42,0,0,1-1.76,1.15l1.11,1.9a3.39,3.39,0,0,1,2.14-.84l-1.24-1.62c-.45.78-2.26,1-3,1.09l1.07,1.84,1.4-.58-1-1.65a3.68,3.68,0,0,1-1.76,1.35l1.12,1.9a12.15,12.15,0,0,1,3.25-1.6l-1.36-1.35-.29.35a1.11,1.11,0,0,0,0,1.57,1.16,1.16,0,0,0,.47.27l.28.09-.27-2a11.89,11.89,0,0,1-4.17,1.66l.58,2.13.94-.27-1.06-.8c-.14-.38-2.46-.29-2.76-.31l.56,2,.51-.38a1.1,1.1,0,0,0-.88-2l-1.08.21,1.35,1.36.36-.88a1.11,1.11,0,0,0-1.5-1.51c-.54.34-1.08.66-1.64.95l.48,1.84,1-.68-1-1.88-.74.38,1.5.4.74.12-1.61-1.24-.18.57,2.12.59.23-.88a1.1,1.1,0,0,0-.81-1.35,1.14,1.14,0,0,0-.81.1l-2.36.72.55,2.05a7.83,7.83,0,0,1,4.4-1.13l-.95-1.66-1,.94,1.07,1.84,1.57-1-1.24-.51.21.31.17-1.34A2.16,2.16,0,0,1,44,178.35l.56,2.05.77-.1-.55-2.05-.67.23.29,2.17,1.35-.21-.3-2.17-1.13.1.55,2,1.33-.44-.59-2.12-1.1.43a1.1,1.1,0,0,0,.3,2.16l2.6.31-.57-2-1.47.51c-1.38.37-.78,2.38.59,2.12l2-.35a1.12,1.12,0,0,0,.74-1.4,1.17,1.17,0,0,0-.26-.44l-.16-.18-.48,1.84,1.41-.14v-2.2h-.34c-1.39.13-1.43,2.26,0,2.2l1.27,0a1.1,1.1,0,1,0,0-2.2c-1.3,0-2.6-.05-3.89-.09l.29,2.16,1.19-.08-.56-2-.3.18a1.1,1.1,0,0,0-.37,1.51,1.09,1.09,0,0,0,.93.53c1.23.07,2.46.11,3.69.13v-2.2H49.55a1.1,1.1,0,1,0,0,2.2,17.14,17.14,0,0,1,1.76.1L51,178.7l-.19.07c-1.31.48-.76,2.64.58,2.12l.39-.14a1.1,1.1,0,0,0-.29-2.16l-2.76-.11v2.2l2-.12a1.1,1.1,0,1,0,0-2.2l-1.26-.1v2.21a9,9,0,0,1,1.64-.15c1.4-.07,1.42-2.24,0-2.2a13.81,13.81,0,0,1-2.32-.05v2.2a25.92,25.92,0,0,1,3.52-.16l-.55-2.05-.69.32a1.12,1.12,0,0,0-.36,1.53,1.13,1.13,0,0,0,.92.52,21.87,21.87,0,0,1,2.29,0v-2.2l-2,.15.29,2.16,1.29-.25a1.07,1.07,0,0,0,.77-.77l0-.25a1.12,1.12,0,0,0-.81-1.36,1.07,1.07,0,0,0-.25,0,4.31,4.31,0,0,1-1.52,0l.56,2c.37-.42.52-.51.44-.26a1.11,1.11,0,0,0,1.52.37,1.09,1.09,0,0,0,.37-.37l.39-.69-2-.26.18.48a1.11,1.11,0,0,0,2.17-.29,10.51,10.51,0,0,0,0-1.48,1.1,1.1,0,0,0-2.2,0L53,178.49h2.2a12.69,12.69,0,0,1-.16-2.14,1.1,1.1,0,0,0-2.15-.29l-.21.88h2.13l-.14-1.13H52.5v.42a1.1,1.1,0,1,0,2.2,0l.13-2.24-2.16.29.26,1.82c.17,1.25,2.15.88,2.16-.29v-1.5H53v1.47h2.2a10.59,10.59,0,0,1,0-1.38H53l.08,1.4a1.1,1.1,0,0,0,2.2,0v-2.38a1.1,1.1,0,0,0-2.2,0V175l2.15-.3-.13-.88c-.15-1.37-2.22-1.45-2.2,0v.55a1.1,1.1,0,0,0,2.2,0c0-1,.07-2,.07-2.92a1.1,1.1,0,1,0-2.2,0l-.07,1.76,2.16-.29a23,23,0,0,1-.3-2.34c-.13-1.39-2.23-1.44-2.2,0a18.74,18.74,0,0,1,0,2.12h2.2L54.62,170a1.1,1.1,0,1,0-2.2,0l-.11,1.33,2.16-.3-.36-1.92c-.21-1.17-1.76-.88-2.12,0l-.13.37,2.16.29.09-1.87-2,.27.29,1a1.1,1.1,0,0,0,1.36.75,1.09,1.09,0,0,0,.79-1v-.88h-2.2a8.78,8.78,0,0,1,.06,1.62h2.2v-1a1.1,1.1,0,0,0-2.2,0l-.09,1.66h2.2l-.19-1.57a1.11,1.11,0,0,0-2.21,0v1.69h2.21c-.09-.65-.15-1.3-.19-2a1.1,1.1,0,0,0-2.2,0v2.15h2.2L54,168.6a1.1,1.1,0,0,0-2.2,0l-.2,1.36h2.13a11.49,11.49,0,0,0-.81-2.93,1.13,1.13,0,0,0-1.24-.5,3.4,3.4,0,0,0-1,.39c-1,.46-.5,2.08.55,2.05l1.5-.05a1.1,1.1,0,0,0,0-2.2h-4v2.2l1.36-.07-.29-2.15c-.78.12-1.56.22-2.35.28-1.38.13-1.45,2.23,0,2.2a40.36,40.36,0,0,1,4.4.18l-.29-2.17a19.67,19.67,0,0,1-3.06.28,1.1,1.1,0,0,0,0,2.2l2,.14v-2.2a26.73,26.73,0,0,1-3.58,0v2.2a34.39,34.39,0,0,1,3.8.15l-.29-2.16a20.71,20.71,0,0,1-5.34.22c-1.45,0-1.35,2,0,2.2a13.1,13.1,0,0,1,2.49.51l.29-2.16a36.07,36.07,0,0,1-5.56-.94l-.29,2.16a14.46,14.46,0,0,1,5.28.41l-.81-1.06v.32l.81-1.05a4.93,4.93,0,0,1-3,0l.26,2,1.22.5-1.51-.39a1.49,1.49,0,0,0-1.35,1.21l1.84,1.08c.16-1.15.37-2.25.63-3.38l-2.17-.29c0,2.22.06,4.41,0,6.65h2.2V170a1.1,1.1,0,0,0-2.2,0c-.22,2.44-.52,4.85-.94,7.25l2.17.3a75.19,75.19,0,0,1-.72-9.25h-2.2c0,2.78.06,5.56,0,8.35h2.2v-4.53h-2.2c.05,1.76.05,3.6,0,5.41h2.2c-.1-2-.1-4-.07-6.06H41.46a29.21,29.21,0,0,1-.23,4.08h2.2v-4.76a1.1,1.1,0,0,0-2.2,0,6.63,6.63,0,0,1-.34,2.21l2.17.29v-3.94h-2.2v1.88h2.2c0-1.13-.13-2.25-.13-3.4a1.12,1.12,0,0,0-1.1-1.1c-1.64-.05-2.29.54-2.38,2.2a31.88,31.88,0,0,0,.54,5c.21,1.9.08,3.92.38,5.79s1.43,2.41,3.3,2.64a41.2,41.2,0,0,0,10.22-.62c1.76-.29,2.57-.7,2.72-2.49.28-3.45-.47-7.7-1-11.09-.35-2.07-1-2.4-3-2.28-3.73.24-7.44.56-11.16.83a1.1,1.1,0,0,0,0,2.2,37.47,37.47,0,0,0,5,0c.48-.07.88.27-.12-.26a7.56,7.56,0,0,1,.95.74l1.88,1.47.77-1.88a3.63,3.63,0,0,0-2.28.46c-1.06.46-.45,2,.55,2,1.56,0,.61,1,1.2,2.47.66,1.7,2,3.07,2.75,4.76a1.13,1.13,0,0,0,1.53.38,1.22,1.22,0,0,0,.37-.38l.08-.14c.68-1.25-1.22-2.36-1.9-1.11Z"/><path class="cls-1" d="M43.3,176.22l-.07-.88a.11.11,0,0,0,0-.08l0-.06h-.3a.07.07,0,0,0-.06.05v.15l.07.88h-.14l-.07-.88a.11.11,0,0,0,0-.08l0-.06h-.3a.18.18,0,0,0-.07.05v.15l.07.88H42.2l-.09-1.17h0l.09.11.11-.11a.2.2,0,0,1,.15,0h0a.28.28,0,0,1,.18,0,.41.41,0,0,1,.14.12.2.2,0,0,1,0-.08l.07-.06.08-.05h.24a.41.41,0,0,1,.11.07.16.16,0,0,1,.08.1.28.28,0,0,1,0,.13l.07.88Z"/><path class="cls-1" d="M44.49,175.94a.34.34,0,0,1-.06.12l-.1.07a.39.39,0,0,1-.14.05H44a.26.26,0,0,1-.11-.07l-.09-.1a.29.29,0,0,1,0-.13v-.54a.29.29,0,0,1,0-.13.41.41,0,0,1,.07-.11.28.28,0,0,1,.1-.09h.36a.24.24,0,0,1,.12.07l.08.09a.33.33,0,0,1,0,.14l0,.53A.31.31,0,0,1,44.49,175.94Zm-.16-.66v-.08l-.06-.06H44l-.07,0a.43.43,0,0,1,0,.07v.63a.11.11,0,0,0,0,.08l0,.06h.44v-.74Z"/><path class="cls-1" d="M45.56,175.86l-.06.12-.11.08H45a.26.26,0,0,1-.11-.07.18.18,0,0,1-.09-.23l0-.53a.33.33,0,0,1,0-.14l.06-.12.11-.08h.36a.34.34,0,0,1,.12.06l.08.11a.29.29,0,0,1,0,.13l.05.53A.33.33,0,0,1,45.56,175.86Zm-.17-.67v-.08l0-.06H45l-.06,0a.25.25,0,0,0,0,.07.11.11,0,0,0,0,.08v.55a.11.11,0,0,0,0,.08l0,.06h.32a.23.23,0,0,0,.1-.12.11.11,0,0,0,0-.08Z"/><path class="cls-1" d="M46,176l-.14-1.65H46l.13,1.64Zm.64-.05-.52-.55.43-.62h.18l-.44.62.53.55Z"/><path class="cls-1" d="M46.87,174.51v-.18H47v.18ZM47,176l-.09-1.17h.15l.08,1.17Z"/><path class="cls-1" d="M48.2,175.65a.24.24,0,0,1-.06.11.21.21,0,0,1-.11.08.29.29,0,0,1-.13,0h-.23a.41.41,0,0,1-.11-.07.21.21,0,0,1-.08-.11.29.29,0,0,1,0-.13v-.53a.29.29,0,0,1,0-.13.39.39,0,0,1,.06-.11.31.31,0,0,1,.11-.09H48a.37.37,0,0,1,.12.07.2.2,0,0,1,.07.09.33.33,0,0,1,0,.14v.28l-.64,0v.34l.05.06h.32a.1.1,0,0,0,.06-.05v-.07a.11.11,0,0,0,0-.08v-.08h.14v.05A.22.22,0,0,1,48.2,175.65ZM48,175v-.08a.1.1,0,0,0,0-.06h-.36l-.07,0v.33h.51Z"/><path class="cls-1" d="M49.8,175.71l-.09-.11a.2.2,0,0,1-.11.11.3.3,0,0,1-.15,0h0a.17.17,0,0,1-.14,0,.34.34,0,0,1-.12-.06.27.27,0,0,1-.08-.1.28.28,0,0,1,0-.13l0-.53a.28.28,0,0,1,0-.13.31.31,0,0,1,.06-.13l.11-.08h.28a.36.36,0,0,1,.12.08l0-.56h.14l.12,1.64Zm-.16-.88v-.07a.06.06,0,0,0,0-.06l-.07,0h-.25l-.06.05a.09.09,0,0,0,0,.07.11.11,0,0,0,0,.08l0,.54a.11.11,0,0,0,0,.08.06.06,0,0,0,.05.06h.32l.06,0v-.06a.14.14,0,0,0,0-.09Z"/><path class="cls-1" d="M50.87,175.44a.26.26,0,0,1-.07.11.22.22,0,0,1-.1.09.29.29,0,0,1-.13,0h-.09a.33.33,0,0,1-.14,0,.29.29,0,0,1-.12-.07.27.27,0,0,1-.08-.1.28.28,0,0,1,0-.13v-.53a.33.33,0,0,1,0-.14.41.41,0,0,1,.07-.11.2.2,0,0,1,.1-.08.22.22,0,0,1,.13,0h.23a.37.37,0,0,1,.12.07.27.27,0,0,1,.08.1.29.29,0,0,1,0,.13v.53A.33.33,0,0,1,50.87,175.44Zm-.16-.66v-.14h-.33l-.06,0v.07a.11.11,0,0,0,0,.08v.63l0,.06.06,0h.26l.06,0a.08.08,0,0,0,0-.07.11.11,0,0,0,0-.08Z"/><path class="cls-1" d="M51.93,175.54l-.09-.11a.2.2,0,0,1-.11.11.47.47,0,0,1-.15.06h0a.33.33,0,0,1-.14,0,.67.67,0,0,1-.12-.06.29.29,0,0,1-.09-.15.28.28,0,0,1,0-.13l-.06-.88h.14l.06.88v.08a.1.1,0,0,0,.05.06h.32l.06-.05v-.06a.14.14,0,0,0,0-.09l-.06-.88h.14l.09,1.17Z"/><path class="cls-1" d="M53.05,175.74a.18.18,0,0,1-.07.1.28.28,0,0,1-.11.08h-.18a.17.17,0,0,1-.14,0,.31.31,0,0,1-.12,0,.27.27,0,0,1-.08-.1.24.24,0,0,1,0-.12h0a.24.24,0,0,1,0-.12.24.24,0,0,1,.06-.11.2.2,0,0,1-.09-.09.26.26,0,0,1,0-.12v-.11a.22.22,0,0,1,.07-.09.58.58,0,0,1-.1-.12.33.33,0,0,1,0-.14v-.09a.33.33,0,0,1,0-.14.26.26,0,0,1,.07-.11.2.2,0,0,1,.1-.08.22.22,0,0,1,.13,0h.06a.22.22,0,0,1,.16,0,.38.38,0,0,1,.13.09l.07-.13h0v.41a.33.33,0,0,1,0,.14l-.06.11-.11.08a.33.33,0,0,1-.13,0h-.25v.09h.37l.12.06a.23.23,0,0,1,.07.1.31.31,0,0,1,0,.12h0A.8.8,0,0,1,53.05,175.74Zm-.19-1.13v-.08l-.06-.06h-.34l-.06,0a.11.11,0,0,0,0,.08.09.09,0,0,0,0,.07v.19l0,.06.07,0h.28l.07,0v-.3Zm.07,1v-.08l-.06-.06h-.36v.15h0a.09.09,0,0,0,0,.07l.05.06h.36v-.14Z"/><path class="cls-1" d="M54,175.39l-.07-.88a.08.08,0,0,0,0-.07l0-.06-.06,0h-.26l-.06,0v.15l.07.88h-.14l-.13-1.64h.14l.05.57.11-.11a.33.33,0,0,1,.14,0h.14l.12.06a1,1,0,0,1,.08.11.29.29,0,0,1,0,.13l.07.88Z"/><path class="cls-1" d="M47.86,171.58a.32.32,0,0,0-.39,0l-.15-.38h-.11l-.09.42a1.27,1.27,0,0,0-.58-.1,1.38,1.38,0,0,0-.59.2l-.15-.4h0s0,0,0,0l-.09.4a.34.34,0,0,0-.4.07.31.31,0,0,0,0,.44h0l.19.17a1.11,1.11,0,0,0,0,.48,1.26,1.26,0,0,0,2.51-.11v-.08a1.52,1.52,0,0,0-.15-.5l.15-.16a.29.29,0,0,0,.15-.4A.16.16,0,0,0,47.86,171.58Zm0,.38-.18.2a.09.09,0,0,0,0,.07,1.08,1.08,0,0,1,.15.47,1.16,1.16,0,0,1-2.3.27v-.09a1,1,0,0,1,.06-.48.06.06,0,0,0,0-.06l-.21-.18a.21.21,0,0,1,0-.29.16.16,0,0,1,.14-.08.24.24,0,0,1,.16.05h0m0,0h0l.07-.32.11.31h0m.05,0a1.11,1.11,0,0,1,.58-.21,1.13,1.13,0,0,1,.6.11h0l.07-.31.11.3h0a.21.21,0,0,1,.29,0,.31.31,0,0,0,.2.24Z"/><path class="cls-1" d="M46.64,172.8a.6.6,0,0,0-.64.58.62.62,0,0,0,.72.47.59.59,0,0,0,.63-.58A.61.61,0,0,0,46.64,172.8Zm.07.94c-.32,0-.59-.14-.61-.37s.22-.44.54-.47a.54.54,0,0,1,.62.38C47.27,173.51,47,173.72,46.71,173.74Z"/><path class="cls-1" d="M46.27,173.14c-.08,0-.12.1-.11.2s.07.18.14.17a.16.16,0,0,0,.11-.19C46.4,173.21,46.34,173.14,46.27,173.14Zm0,.27v-.07a.14.14,0,0,1,0-.09.11.11,0,0,1,0,.08s0,.08,0,.08Z"/><circle class="cls-1" cx="46.17" cy="172.62" r="0.11"/><circle class="cls-1" cx="47.11" cy="172.54" r="0.11"/><path class="cls-1" d="M47.05,173.08c-.07,0-.12.1-.11.19s.07.19.14.18.12-.09.12-.19S47.12,173.08,47.05,173.08Zm0,.26v-.07a.11.11,0,0,1,0-.08.09.09,0,0,1,0,.07c.05.05,0,.08,0,.08Z"/><path class="cls-1" d="M51,172.08h0a.32.32,0,0,1-.26.17.32.32,0,0,1-.3-.15h0a.41.41,0,0,1-.46-.36v0a.28.28,0,0,1,0-.13.06.06,0,0,1,0-.06v0h0a.25.25,0,0,1-.18-.21v0h0a.2.2,0,0,1,0-.11,0,0,0,0,0,0,0,0,0,0,0,0,0,0h-.12a1.42,1.42,0,1,0,1.53,1.3h0C51.07,172.28,51,172.18,51,172.08Zm-1.29-.52a.21.21,0,0,1-.11,0,.19.19,0,0,1-.21-.18.21.21,0,0,1,.14-.19.31.31,0,0,0,.19.27A.35.35,0,0,0,49.72,171.56Zm0,2.17a1.33,1.33,0,0,1-.21-2.64h0v0a.29.29,0,0,0,.08.57h.1a.51.51,0,0,0,.56.47h0a.39.39,0,0,0,.37.16.45.45,0,0,0,.27-.12.17.17,0,0,1,0,.1,1.32,1.32,0,0,1-1.16,1.41Z"/><path class="cls-1" d="M49,171.79a.3.3,0,0,0-.26.31.28.28,0,0,0,.31.26h0a.27.27,0,0,0,.25-.29h0a.29.29,0,0,0-.29-.27Zm0,.48a.19.19,0,0,1,0-.38h0a.2.2,0,0,1,.23.15.19.19,0,0,1-.15.23h0Z"/><path class="cls-1" d="M49.09,172.82a.24.24,0,1,0,.24.24A.24.24,0,0,0,49.09,172.82Zm0,.38a.14.14,0,0,1-.16-.12h0a.15.15,0,0,1,.13-.16.13.13,0,0,1,.15.11v0a.13.13,0,0,1-.09.15Z"/><path class="cls-1" d="M50,172.61a.38.38,0,0,0-.34.41.37.37,0,0,0,.4.35h0a.38.38,0,0,0,.35-.41A.39.39,0,0,0,50,172.61Zm0,.66a.28.28,0,0,1-.3-.26.29.29,0,1,1,.57,0,.28.28,0,0,1-.26.31Z"/><path class="cls-1" d="M135.8,119c-4.19,6.91-2.91,14.12-.63,21.52.94,3,2.05,5.59,1.64,8.86a20.54,20.54,0,0,0-.51,4.55c.17,2.42,1.11,5,.2,7.39l-1.88,3.18L129,161.68a19.81,19.81,0,0,1,1.41-2.29,10.83,10.83,0,0,0,.4-8,22.35,22.35,0,0,0-1.87-3.6,16,16,0,0,1-1.64-3.12c-1.34-4.89.09-3,1.12-5.33a7.76,7.76,0,0,0,.27-6.78c-.88-2.22-2.49-4.17-2.65-6.63a9.15,9.15,0,0,1,3.28-7.45c1.06-1-.5-2.5-1.56-1.56A11,11,0,0,0,124,127.11c.36,2,1.39,3.52,2.22,5.35,1.69,3.73-.8,5.8-1.37,9.12-.78,4.55,3.33,7.5,4.19,11.62s-1.56,5.5-2.73,8.73a4.49,4.49,0,0,0,.22,4.18c1.71,2.74,5.16,2.85,7.73,1.42,3.66-2.05,5-6.17,4.77-10.14-.1-1.37-.56-2.76-.56-4.14,0-1.95.79-3.59.88-5.49.1-2.21-.88-4.22-1.53-6.27-2.38-7.14-4.26-14.54-.1-21.39.74-1.2-1.16-2.31-1.9-1.1Z"/><path class="cls-1" d="M136.17,124.38c4.2,2.37,3.81,8.33,6.71,11.86,1.67,2,3.68,2.87,4.29,5.71.47,2.15,0,4.4-.22,6.54-.35,4.12.21,7,3.45,9.76,2.09,1.76,4.86,5.7,7.92,5.65s4.7-3,4.64-5.67c0-2-1.13-3.78-2.16-5.4-2.16-3.4-3.71-5.17-2.78-9.68.88-4.16.88-6.61-2.17-9.78a139.47,139.47,0,0,1-12.64-14.47c-.82-1.14-2.73,0-1.9,1.12a105.77,105.77,0,0,0,7.86,9.68c1.63,1.76,3.56,3.36,5.12,5.18,2.64,3.13,2,5.42,1.27,9-.62,3.24.39,5.69,2.2,8.37.61.92,1.34,1.8,1.86,2.78l1,2.15-4.34,3.44c-.73-.11-2.81-2.82-3.52-3.37-2.54-2.08-3.79-3.77-3.76-7.12,0-1.71.37-3.4.47-5.11.14-2.48-.06-4.9-1.57-7-1.29-1.76-3.19-2.77-4.31-4.7a38.74,38.74,0,0,1-2-5.28c-.88-2.43-2-4.41-4.33-5.67-1.24-.69-2.35,1.21-1.11,1.9Z"/><path class="cls-1" d="M136.28,112c-3.82,3.63-10.08,1.23-14.08,5.22-2.86,2.87-4.1,6.88-6.11,10.29a11.61,11.61,0,0,1-6.25,5.28,9,9,0,0,0-3.9,2.5c-3.41,4.13-2.2,10.22-5.62,14.46-1.58,2-4.69,5.14-7.35,1.64-1.11-1.46-1-4.18-.48-5.78,1.18-3.76,4.56-4.35,7.26-6.51,4.29-3.45,2.3-10.48,8-12.32,1.76-.59,3.38-.34,4.61-2.07,1.39-2,.69-4.71,2-6.83,4.24-6.63,15.06-8.23,22.16-8.16a1.1,1.1,0,1,0,0-2.2A38.12,38.12,0,0,0,119.74,111a19,19,0,0,0-5.94,4.13c-1.6,1.76-1.86,3.46-2.75,5.49a39.06,39.06,0,0,1-2.77,3.88c-.42.26-1.23.11-1.7.29a8.33,8.33,0,0,0-2.71,1.19,7.16,7.16,0,0,0-2.17,3.68c-1,3.32-1,6.27-4.29,8.38-1.85,1.19-3.89,2-5.29,3.76-4.54,5.53-.88,17.6,7.17,12,3.88-2.72,5.28-6.74,6.25-11.15.88-3.75,1.64-6.4,5.48-7.92a12.17,12.17,0,0,0,4.61-2.84c3.25-3.34,4.28-8.15,7-11.8,4-5.22,10.75-2.36,15.17-6.56,1-1-.53-2.53-1.56-1.55Z"/><path class="cls-1" d="M118.51,124.62c-.65,2.49.2,4.89-.25,7.32-.77,4.18-3.21,3.07-4.67,5.73-.8,1.47-.23,3-.41,4.55-.29,2.43-2.23,3-3,5-.21.51-.07,1-.24,1.54a11.2,11.2,0,0,1-2.48,4.55,11.57,11.57,0,0,0-2.47,2.94A7.76,7.76,0,0,0,106.4,165c2.31,2.32,6.37,3.31,9.35,1.71,3.52-1.9,2.64-6.09,2.84-9.44s1.76-5.24,3-8.11c1.14-2.55-.19-4.25.42-6.87.5-2.2,2.29-3.85,2.64-6.16.52-3-1.22-6.22.58-9.08.75-1.21-1.15-2.32-1.9-1.11-2.24,3.56,0,7.47-1.31,11.23-.57,1.57-1.76,2.87-2.18,4.5-.46,1.92.51,4,0,5.82s-2.11,3.23-2.82,5a13.89,13.89,0,0,0-.72,5.54c0,3.65-.43,8-5.28,7.11a5.72,5.72,0,0,1-3.16-9.42c1.76-1.88,3.87-1.94,4.27-4.85.17-1.24-.29-1.76.31-2.86.44-.82,1-.84,1.56-1.48a5.33,5.33,0,0,0,1.2-2.2c.5-1.89-.4-3.57.57-5.37.82-1.51,2.22-1.64,3.29-2.94,2.46-3,.61-7.39,1.49-10.85a1.1,1.1,0,0,0-2.12-.58Z"/><path class="cls-1" d="M111.9,116.46c-2.3.05-4.61,1.08-6.82,1.72A84.17,84.17,0,0,0,96.36,121c-4,1.64-7.79,4.09-9.63,8.19-1.14,2.53-1.27,5.28-2.21,7.93-1.88,5.14-6.1,3.78-10.25,4.63s-5.48,4.19-5.76,8.17c-.24,3.45-.28,10.5,4,11.79s6.91-5.05,7.83-8.15c.7-2.33.38-3.58,3.48-5.13,1.15-.58,2.57-.58,3.76-1.2a9.46,9.46,0,0,0,4.21-4.66c.41-.94.47-2,.88-2.91,1-2.55,2-3,3.66-4.58,2.71-2.54,4.07-8.59,8.5-8.8,1.42-.07,1.43-2.27,0-2.2-4.32.23-5.81,3.36-7.92,6.7-1.41,2.27-3.52,3.3-5.07,5.34-1.2,1.62-1.28,3.57-2,5.36-1.67,3.9-4.33,3.66-7.71,5.28a5.75,5.75,0,0,0-2.87,2.86c-.73,1.52-.88,3.27-1.44,4.84a14.63,14.63,0,0,1-2.59,4.45l-4-2c-.88-1-.63-4.26-.63-5.5,0-4.71,1.17-7.53,6.58-7.78a15,15,0,0,0,4.7-.66c3.35-1.25,4.53-4.35,5.33-7.58,1.4-5.66,3.31-9.42,8.8-12a56.84,56.84,0,0,1,8.14-2.74c2.37-.69,5.2-2,7.69-2.06a1.11,1.11,0,0,0,0-2.21Z"/><path class="cls-1" d="M110.87,133.74c0,7-8.2,9.52-10.64,15.46-1,2.33-.88,4.29-.88,6.75,0,1.92,1.16,2.06-.44,4.4a15.4,15.4,0,0,1-2.34,1.76C93.21,165,84,178.17,92.81,180.29c2.93.7,7.7-1.3,9.47-3.68,1.17-1.56,1.25-3.42,1.25-5.28a37.27,37.27,0,0,1-.16-4c.32-2.94,1.6-3.86,3.26-5.87,3.31-4,2.38-7.8,4-12.37,1.14-3.13,4-4.82,5.65-7.64a15.45,15.45,0,0,0,1.87-7.5,1.1,1.1,0,0,0-2.2,0,13.25,13.25,0,0,1-3.62,9c-1.2,1.35-2.51,2.44-3.29,4.09-1.84,3.85-.69,8.32-3.29,11.9-1.9,2.64-4.19,4.29-4.55,7.7-.22,1.94.39,4,.1,5.88-.49,3.17-2.35,4.18-4.75,5-2.17.73-4.69,1.58-5.07-2.72-.45-5,5.12-9.87,8.5-12.58,2.1-1.68,2.24-2.71,1.76-5.36-1.22-6.65,2.7-10.13,7-14.34,2.57-2.5,4.29-5.19,4.26-8.81a1.1,1.1,0,0,0-2.2,0Z"/><path class="cls-1" d="M150.79,119.37c-.44,4.66,3.44,6.08,5.62,9.6,1.35,2.16,1.32,4.8,2.05,7.16s2.4,4.4,2.91,7c.92,4.56.92,14.8,8,10.81,2.5-1.39,2.79-2.86,2.59-5.44a14.18,14.18,0,0,1,.11-4.73,13,13,0,0,0,.72-2.53,4.78,4.78,0,0,0-.49-2.29c-.68-1.42-2-2.17-2.91-3.42-2.06-2.91-1.08-5-1.64-8-.76-4-4-6.71-7-9.1-1.11-.88-2.64.68-1.56,1.55,3.43,2.69,6.43,5.28,6.57,9.94.07,2.33-.24,3.93,1.08,6a21,21,0,0,0,2.21,2.4c1.89,2,1.46,3.2.66,5.5a6.81,6.81,0,0,0-.62,2.81c0,.84.83,1.76.81,2.52-.14,2.19-1.07,3.24-2.82,3.15-1.54.62-2.29-.13-2.26-2.27a27.51,27.51,0,0,1-1.19-6.16,14.93,14.93,0,0,0-2.16-6.17c-1.44-2.73-1.25-5.89-2.55-8.64-1.59-3.37-6.31-5.38-5.91-9.63.14-1.41-2.06-1.4-2.2,0Z"/><path class="cls-1" d="M162.64,116.58c2.55,1.89,5,3.79,6.58,6.59,1.24,2.16,2,4.58,3.28,6.71,1.58,2.54,2.81,4.4,3.44,7.38a16.1,16.1,0,0,0,2,5.5c2.16,3.57,8.61,11.45,12,4.6,1.41-2.82.2-5.61-1.35-8.05a28.64,28.64,0,0,1-3.62-6.83c-.67-2.16-.71-4.44-1.38-6.6-1.25-4-4.71-6.76-7.8-9.35a100.44,100.44,0,0,0-12-8.63c-1.2-.74-2.31,1.17-1.1,1.91a95.3,95.3,0,0,1,10.41,7.3c3.31,2.64,7.45,5.68,8.61,10,.75,2.78.83,5.54,2,8.23,1,2.37,6,7.71,4.59,10.3-3.23,6.17-9.51-5.66-10-7.57-.88-3.39-1.11-5.1-3.05-8.09s-2.93-6.31-4.89-9.18a26.83,26.83,0,0,0-6.6-6.1c-1.13-.88-2.23,1.07-1.1,1.9Z"/><path class="cls-1" d="M168.3,135.14c5.81,5,3.53,15.25,5,22.28.69,3.33,2.91,9.74,7.14,10.15,3.36.32,4.71-5,4.45-7.47-.7-6.67-7.67-9.46-5.43-17a1.1,1.1,0,0,0-2.13-.58,11.48,11.48,0,0,0,1.19,10c1.17,1.89,2.7,3.59,3.52,5.68.51,1.27,1.3,4.85-.2,5.94-2.15,1.56-4.12-1.16-4.94-2.6-4.93-8.7,1.09-20.94-7-28-1.06-.93-2.64.62-1.56,1.55Z"/><path class="cls-1" d="M169.68,112.52c5.1-.49,11.56-1.12,15.14,3.39,2.21,2.79,1.76,6.67,4.07,9.5,1.44,1.76,3.4,3.11,4.47,5.2a20.21,20.21,0,0,1,1.47,5.89c.48,2.91,1,5.73,2.86,8.1s4.75,3.67,6.47,6.09c1.24,1.76,1.71,2.49-.2,3.64s-2.59.47-4.14-.71c-2.32-1.76-3.47-4.45-4.35-7.12-2-6.17-2.77-13.16-9.24-16.32-1.27-.62-2.39,1.28-1.11,1.91,9.77,4.78,5.28,20.07,15.45,24.64,7.14,3.22,8.59-4.35,4.23-8.62-1.41-1.39-3.14-2.44-4.5-3.88-2.24-2.36-2.83-5.23-3.35-8.32-.88-5.1-2.31-7.31-5.64-11.09s-2.41-9.1-6.78-12.24-9.83-2.74-14.85-2.26c-1.4.13-1.41,2.33,0,2.2Z"/><path class="cls-1" d="M167.1,109.81a26.7,26.7,0,0,1,12-3.53c2.82-.11,5.8,0,8.09,2a30,30,0,0,1,2.26,2.64,12.86,12.86,0,0,0,5.66,3.63c2.64.88,5.54.3,8.07,1.06,3.73,1.13,5.28,7.32,6.83,10.57,1.64,3.52,3.46,6.91,4.49,10.63,2,7.21,3.74,14.35,6.23,21.43.73,2.06,1.87,5.28.8,7.44-2.79,5.6-6.73-2.5-7.14-4.4-.8-3.64-.11-7.45-.67-11.12-.88-5.62-5-8.45-7.7-13.1-1.76-3-.76-6.4-2.18-9.38-.88-1.88-2.58-2.64-4.16-3.86-3.44-2.64-6.06-7.67-11-5.29-1.28.61-.16,2.51,1.11,1.9,3.26-1.58,6,3.21,8.3,4.9a10.31,10.31,0,0,1,4.2,5.93c.23,1.16.07,2.35.36,3.52,1.31,5.18,6.42,8.21,8.21,13.12,2,5.57-.23,11.88,2.59,17.29,1.45,2.77,4.52,5.38,7.74,3.78,4.12-2.06,3.18-7.11,2-10.56-2.4-6.86-4.4-13.64-6.16-20.7-1.47-6-4.52-11.45-7.13-17-.94-2-1.69-5-3.53-6.4-1.56-1.22-4-.88-5.79-1a14.64,14.64,0,0,1-10.66-5.28,9.9,9.9,0,0,0-6.24-3.66c-6.05-1-12.4.69-17.67,3.61-1.23.69-.12,2.59,1.11,1.91Z"/><path class="cls-1" d="M213.05,129.38c4.81,1.69,3.39,5.68,5.81,8.89,1.29,1.76,3.87,1.52,4.63,3.67.63,1.81-.14,3.6,1.16,5.29a8.52,8.52,0,0,0,2,1.47c2.31,1.7,3.2,2.78,3.44,5.61.32,3.91.24,8.66,4.95,9.85a9.11,9.11,0,0,0,9.89-4.87c1.92-4.4-1.64-7.92-5-10.21-1.56-1.09-3.52-2-4.66-3.52-2.12-2.86-1.07-4.4-1.4-7.26a6.55,6.55,0,0,0-2.54-4.55c-2.13-1.76-5.07-2.3-7-4.29-2.48-2.51-2.6-6.48-5-9-1.55-1.62-2.85-1.51-4.81-2.17-2.37-.82-3.64-3.36-6-3.53-1.41-.08-1.41,2.12,0,2.21.68,0,2.25,2.64,3.15,3.1a14.34,14.34,0,0,0,1.68.35c2.39.76,4.22.81,5.61,3.28,2.31,4.08,2.9,7.18,7.22,9.59a31.38,31.38,0,0,1,2.87,1.51c2.64,1.76,2.52,3,2.72,6.16.13,1.9.1,3.37,1.16,5,2.64,4.19,14.58,7.81,8.8,14.13-3.75,4.13-9,1.39-9.34-3.57a27.78,27.78,0,0,0-.44-5.07,6.31,6.31,0,0,0-2-3.38c-.64-.55-1.56-.72-2.18-1.25-2.33-2-1.76-2.74-2-4.85-.52-4.15-4.4-3.9-5.94-7.5s-2.19-5.8-6.12-7.18c-1.34-.47-1.91,1.65-.58,2.12Z"/><path class="cls-1" d="M184.7,105.1a15.37,15.37,0,0,0,7,.35,15.84,15.84,0,0,1,5.32-.16c1.76.4,3.07,1.68,4.61,2.52,4.9,2.64,9.75-.28,14.71,1.33,5.21,1.7,5.59,8.72,9,12.32,1.82,1.93,4.46,2.41,6.09,4.63,1.51,2.06,2,4.75,3.58,6.86,1.36,1.84,3,3.42,4.49,5.14a20.76,20.76,0,0,1,2.64,3.47l.84,1.76c-2.52.63-3.94,0-4.26-2-1.26-1.67-1.92-3.89-3.22-5.63a62.55,62.55,0,0,0-4.73-5.43,55.23,55.23,0,0,1-6-7c-1.18-1.76-1.89-3.84-3.17-5.52-2.77-3.63-7.25-3.77-11.44-3.52-1.41.09-1.42,2.29,0,2.2,4.87-.31,8.3.14,10.9,4.72a42.08,42.08,0,0,0,4.29,6.43c2.17,2.59,4.66,4.91,6.85,7.49,2.52,3,3.66,5.88,5.35,9.31,1.21,2.45,4.73,5.46,7.28,2.54,2.76-3.18-2.17-8.7-4.15-10.91a32.93,32.93,0,0,1-6.17-8.68c-.88-2-1.76-3.7-3.57-4.92-3.09-2.05-5-3.47-6.62-6.91-1.05-2.17-2-4.46-3.63-6.23-4.73-4.94-11.25-.72-16.78-2.94-2.79-1.12-4.61-3.16-7.76-3.43-3.72-.32-7.19,1.22-10.89,0-1.35-.45-1.92,1.68-.58,2.12Z"/><path class="cls-1" d="M85.7,147.23c.62,3.31.63,5.59-1.12,8.58A9.5,9.5,0,0,0,83.09,159c-.27,1.56.52,3.12-.53,4.51-.75,1-2.37,1.71-3.25,2.64-3,3.19-6.83,10.8-3.16,14.83,3.87,4.23,6.75-2.31,7.81-5.18,1.48-4,5.19-6,6.71-9.84,1.34-3.36.36-7.19,2.64-10.23.88-1.14-1.06-2.25-1.9-1.12A10.61,10.61,0,0,0,89.5,160c-.24,2-.19,4.1-1.18,5.91-.77,1.43-2.22,2.41-3.27,3.6a15.85,15.85,0,0,0-3,5.05c-.3.88-.59,1.7-.88,2.57l-4,1c-1.24-1,.54-5.28,1.08-6.45a14.24,14.24,0,0,1,3.08-4.47c1-1,2.64-1.55,3.44-2.64,1-1.27.57-1.31.79-2.64a18.38,18.38,0,0,1,1.29-5.59,16.43,16.43,0,0,0,1.24-2.57c.66-2.35.17-4.85-.27-7.19-.27-1.39-2.39-.8-2.12.59Z"/><path class="cls-1" d="M136.83,103.63l-15.09-.72c-3.52-.16-8-1.07-11.45.13s-3.42,4.89-6.59,6.29c-2,.88-5.61.48-7.8.71q-3,.33-6,.88c-6.9,1.26-13.14,3.81-16.45,10.35A18.61,18.61,0,0,0,73.33,138a1.14,1.14,0,0,0,1.51.4,17.92,17.92,0,0,0,8.3-7c1.31-2.14,1.85-4.61,3.66-6.46s4.88-3.46,7.29-4.69c3.2-1.65,6.12-2,9.63-2.47a11.67,11.67,0,0,0,3.84-1.14c2-1,3.62-2.57,5.56-3.65a16.61,16.61,0,0,1,10.25-1.86c1.41.15,1.4-2,0-2.2a18.88,18.88,0,0,0-13.16,3.27c-3,2.06-4.92,3.07-8.73,3.52A21.49,21.49,0,0,0,95.74,117c-3.94,1.58-9,4.13-11.63,7.64-1.27,1.7-1.77,3.82-2.9,5.61a16.12,16.12,0,0,1-7.51,6.23l1.51.39a16.44,16.44,0,0,1,3.58-19.12c6-5.43,15.54-5.15,23.06-5.92a9.89,9.89,0,0,0,4.77-1.35c2.74-1.92,1.93-5.15,6.17-5.64,3.43-.4,7.18.22,10.63.39l13.42.63c1.42.06,1.42-2.14,0-2.2Z"/><path class="cls-1" d="M184.15,104.22c3.3-4.63,9.23-2.7,13.68-1.44A37.5,37.5,0,0,0,209,104c5.19-.06,10,.26,13.07,5,1.55,2.41,2.77,4.52,5.13,6.23,2.64,1.95,6,3.1,8.34,5.51,2.64,2.72,2.64,6.89,4.49,10.09,2.16,3.8,6.53,6.61,10.85,4.4,5.17-2.64,2.42-8.51.58-12.51-2.6-5.68-6.34-11.18-12-14.08-2.72-1.39-5.73-2-8.54-3.21-4.08-1.68-5.54-4.56-8.17-7.75-4.48-5.45-12.45-2.57-18.57-2.9-4.41-.24-7.85-1.07-12.11.12-4,1.13-8.17-.07-12.1,1.13a17.81,17.81,0,0,0-4.09,2.22c-2.3,1.41-4,1.58-6.59,1.92-2.42.31-4.14,1.56-6.38,2.44-1.3.52-.74,2.65.59,2.13,1.88-.74,4.44-2.08,6.34-2.42,2.22-.41,4.08-.31,6.17-1.49a27.29,27.29,0,0,1,4.16-2.47c2.16-.79,4.32-.56,6.58-.54,3.43,0,6.37-1.57,9.68-1.65,3.66-.08,7.39.88,11.1.88,4.64,0,10.11-1.89,13.56,2.1,1.57,1.8,2.5,4,4.32,5.62a19.62,19.62,0,0,0,6.59,3.41c7.29,2.55,12.33,5.68,16.13,12.66,1.55,2.83,6.91,12.65-.34,12.8-4.88.09-6.48-5.17-7.7-9-1.7-5.28-5.28-7.29-9.79-10-4.9-3-6.26-9.21-11.55-11.53-3.06-1.34-6.41-1.33-9.68-1.28a44.37,44.37,0,0,1-12.76-1.76c-5.08-1.39-10.67-1.62-14,3.07-.82,1.15,1.09,2.25,1.91,1.11Z"/><path class="cls-5" d="M251.32,126.76c.21-7.66-6.46-12.84-11.44-17.81a3,3,0,0,0-4.18,0,2.79,2.79,0,0,0-.28.32,12.36,12.36,0,0,0-5.2-2,2.41,2.41,0,0,0-.3-.81c-3.46-6.07-8.92-9.51-15.26-11.19a4.16,4.16,0,0,1-1.71.28c-6.09-.13-12.22.38-18.33.22a1.14,1.14,0,0,1-1,.52,64.17,64.17,0,0,0-10.18.66c-1.6.44-3.16.88-4.62,1.4h0l-1.85.63a3.09,3.09,0,0,0-1.85,1.84c-12.07,3.8-25,3.72-37.68,3.33a1.59,1.59,0,0,1-.43.06c-1.56,0-3.11-.12-4.66-.23-3.76-.12-7.51-.24-11.27-.23-3.26,0-7.18-.44-10.16,1.15a9.1,9.1,0,0,0-2.64,2.3c-1.66,2-3.21,2.52-5.63,3.19a110.15,110.15,0,0,1-11.08,2.34,3.66,3.66,0,0,0-.81.09h-.09a2.93,2.93,0,0,0-2.73.12c-.24.13-.46.28-.7.41l-1.66-.13A2.47,2.47,0,0,0,85,113c-1.34.68-2.48,1.49-3.86,2.25a3,3,0,0,0-.14.83c-.26.11-.52.24-.77.37a15.17,15.17,0,0,0-2.2,1.12,2.89,2.89,0,0,0-1.33,1.62,2.9,2.9,0,0,0-2,2L74,123.65a3.23,3.23,0,0,0-.11,1.48l-.18.88a2.75,2.75,0,0,0,0,.95,6,6,0,0,0-.19,3.38,3,3,0,0,0,.12.43,3.29,3.29,0,0,0,.19.7l-.4.65a2.94,2.94,0,0,0,1.71,4.4,19.84,19.84,0,0,0,4.9-3.36L84.4,126a3.28,3.28,0,0,0,.44-1.16c.2-.21.37-.41.52-.6a9.16,9.16,0,0,1,2.35-1.7,2.79,2.79,0,0,0,1.37-1.46h0l.36-.14c.63-.32,1.26-.6,1.89-.88,5.53-3.08,12-3.63,17.91-5.83a29,29,0,0,0,3-2.24c3.75-3.07,9.33-2.1,14-2H127a47.57,47.57,0,0,0-5.56,2,14,14,0,0,0-8,7.82,3.1,3.1,0,0,0-2.8-1.14,3.45,3.45,0,0,0-1.2,0l-1.59.27a2.6,2.6,0,0,0-1.6.81c-1.94.61-3.85,1.34-5.76,2.07a3.19,3.19,0,0,0-1.76-.1,13.42,13.42,0,0,0-9.41,7.51,2.65,2.65,0,0,0-2.73,2.2l-.8,4.32v.4a10.22,10.22,0,0,1-3.32,4.54,11.23,11.23,0,0,1-4.19,1.87,3.67,3.67,0,0,0-1.89.51,15.29,15.29,0,0,0-1.76.62c-5.55,2.43-5.17,7.71-5.61,12.92-.17,2,1.58,3,3.26,3,1.66,1.88,5.56,1.26,5.43-1.91a11.73,11.73,0,0,1,.73-4.14,29.78,29.78,0,0,0,1.21-3.08c.26-.66.53-1.32.76-2a16.36,16.36,0,0,0,6.16-3.13l.53-.47a2.46,2.46,0,0,0,.47-.1A3.37,3.37,0,0,0,86.27,147a24.92,24.92,0,0,0-.17,3.66,3,3,0,0,0,.4,1.37,27.5,27.5,0,0,1-2.77,8.17,1.49,1.49,0,0,1,.26,1.19,6.17,6.17,0,0,1-1,2.37,1.42,1.42,0,0,1-1.35.64c-1.76,3.4-3.63,6.74-5.54,10.07-1.7,2.95,2.45,6.41,4.83,3.73,3.28-3.71,7.28-7.32,9.64-11.72a3,3,0,0,0-.88-3.91,33.6,33.6,0,0,0,2.9-10.11,2.27,2.27,0,0,0,1.26-.18c1.55,1.76,3.52,1.43,5.28.28a5.17,5.17,0,0,0,1.7-1.38,3,3,0,0,0,.63-3.14,13.51,13.51,0,0,0,1-.88,2.64,2.64,0,0,0,.63-3.29c.39-.51.77-1,1.13-1.59,1.36-2.08,2.44-4.05,4.4-5.7,1.42-1.22,2.94-2.25,4.4-3.43a13.92,13.92,0,0,0-.81,2.49,33.36,33.36,0,0,1-.88,3.26,3.66,3.66,0,0,0-.81.81c-1.13,1.6-2.35,3.08-3.52,4.58a2.41,2.41,0,0,0-1.76.88,28.61,28.61,0,0,1-2.76,3,3.12,3.12,0,0,0-.83,2.82c-2.13,3.74-1.81,7.83-2.94,12l-.15.47a2.64,2.64,0,0,0-3.47,1.34c-2.05,4.06-5.72,8.87-3.76,13.45,1,2.39,4.11,1.59,5.28,0l.21-.27c3.39-1.36,5.52-4.08,5.28-7.92a.54.54,0,0,0,0-.18l.15-.18a15.4,15.4,0,0,0,2.42-5.11c.57-2.18.66-4.46,1.07-6.65a3.26,3.26,0,0,0,1.21-1.53l.16-.34c.37-.47.72-.94,1.09-1.42a3.82,3.82,0,0,0,.45-.53l2-2.8a45.81,45.81,0,0,0-2.84,5.75c-1,2.45-2.46,5.87-.31,8.08a4.19,4.19,0,0,0,3.81,1.19c1.64,1.19,4.22,1,4.63-1.52.13-.78.26-1.57.39-2.34a22.57,22.57,0,0,0,1.21-2.14,14.81,14.81,0,0,1,3.09-10.05,1.11,1.11,0,0,1,.82-.44,14.39,14.39,0,0,0,.05-5.07,3.07,3.07,0,0,0-.13-.5c.41-.88.82-1.8,1.21-2.71,1-2.4,2.25-4.85,2.44-7.47a32.05,32.05,0,0,0-.63-3.36,1.25,1.25,0,0,1,.37-1.25c-.21-2.8-.15-6.11,1.71-7.7-.17,1-.31,2-.42,3.14a2.71,2.71,0,0,0-.7,2.82c.16.45.3.88.45,1.36a1.15,1.15,0,0,1,1.15.93,40.93,40.93,0,0,1,.92,5.92,1.09,1.09,0,0,1,0,.36c.08.35.17.68.25,1a2.94,2.94,0,0,0-1.92,1.86,1.28,1.28,0,0,1,.22.73c0,5,3.14,9.17,3.59,14.08.29,3.12-.78,6.06-1.63,9.06a3.59,3.59,0,0,0,1.9.88c.73,2.64,4.9,2.45,6-.25a35.88,35.88,0,0,0,1.69-18.26c-.3-2.11-.51-4.79-2.14-6.38a3.55,3.55,0,0,0-1.14-.74c-.1-.48-.21-1-.32-1.46a3.52,3.52,0,0,0,.83-1.84,34.84,34.84,0,0,1-.36-5.59,3.61,3.61,0,0,0-.35-.33,32.83,32.83,0,0,1,1.86-7.55c.41.69.83,1.34,1.2,2l7.17,12.07a2.62,2.62,0,0,0,.23.32,4.45,4.45,0,0,1,.23.66c2.72,1.57,3.53,5.76,4.28,8.58a1.35,1.35,0,0,1-1,1.62,1.37,1.37,0,0,1-.87-.08,29.82,29.82,0,0,0,1.76,7.62,10.33,10.33,0,0,0,3.59,4.71,4.83,4.83,0,0,0,1.91.62c.1.17.18.34.28.51a3.1,3.1,0,0,0,4.25,1,3.29,3.29,0,0,0,.87-.79,3.57,3.57,0,0,0,1.31-1.22,16,16,0,0,1,.34,2.17c.13,1.77,0,2.87,1,4.34,1.2,1.77,4.24,2.24,5.28,0a10.45,10.45,0,0,0-.52-10.83,3.1,3.1,0,0,0-1.44-1.19c-.12-.33-.25-.65-.36-1,1.6,1.1,4.11.78,4.68-1.6,1-4.2,1.76-8.33.21-12.49a3.5,3.5,0,0,0-2.28-2,55.47,55.47,0,0,0-2-5.86,2.81,2.81,0,0,0,.47-1.83,14.76,14.76,0,0,1,1.19,2,2.52,2.52,0,0,0,.74,3.19,10.44,10.44,0,0,1,.88.88c.31,1,.6,1.9.88,2.83,1,3.14,1.86,6.34,2.64,9.54.12,1.57.21,3.08.36,4.4.58,4.83.73,9.81,4.41,13.38a3.1,3.1,0,0,0,5.14-3c-.66-2.64-1.3-5.35-1.93-8a32.43,32.43,0,0,1-2.71-7.45,1.29,1.29,0,0,1,.56-1.39c-.07-.25-.13-.5-.19-.76-.11-.88-.21-1.72-.32-2.57-.06-.43-.12-.88-.19-1.29a2.92,2.92,0,0,0,1.28.88v.07a2.74,2.74,0,0,0,.72,2,3,3,0,0,0,1.21,2.64,4.37,4.37,0,0,0,2.1,2.71,3.09,3.09,0,0,0,3.11,0,4.44,4.44,0,0,0,1.58-6.87,2.93,2.93,0,0,0-1.25-2.65,3,3,0,0,0-2.23-3.41l-.74,0a5.24,5.24,0,0,0,.25-1.67,12.76,12.76,0,0,0-.49-2.52,2.76,2.76,0,0,0,1.48-.62,3.83,3.83,0,0,0,1.2.29c2.86.19,5.08,9.8,5.75,11.86,1.24,3.76,2.65,7.79,5.29,10.85,1.92,2.23,5.21,3.93,7.38,1,2.42-3.28-1.34-5.78-3.57-7.64a3.15,3.15,0,0,0-1.51-.71c-1.84-3.8-2.64-8.8-4-12s-3.2-7-6.3-8.62a3.09,3.09,0,0,0-1.71-3.64c-.46-1.18-.94-2.35-1.46-3.52a3,3,0,0,0-.43-1.62,10.44,10.44,0,0,0-3.38-3.52,2.43,2.43,0,0,0,1.47-.88,11.47,11.47,0,0,1,2,4.17,3.12,3.12,0,0,0,5.63.74c-.39.55,3.11,2.93,3.52,3.37a9.78,9.78,0,0,1,.71,1c.13.36.28.72.42,1.08a1.5,1.5,0,0,1,.4.25q2.24,2,4.26,4.26a1.33,1.33,0,0,1,.3.53,3.66,3.66,0,0,0,1.32-.8q1,4.5,1.56,9.09a2.49,2.49,0,0,0,2.5,2.19c.37,1.13.73,2.26,1.09,3.4a2.89,2.89,0,0,0,3.22,2.15l.13.37c.65,1.76,1.54,3.46,2.06,5.28.65,2.24.24,4.26.23,6.53a18.27,18.27,0,0,0,2.36,9.37,2.86,2.86,0,0,0,1.53,1.29c1.81,1.48,5.23.75,5.1-2.23l-.33-7.24a3.12,3.12,0,0,0-2.39-2.84,26.27,26.27,0,0,0-.2-4.52c-.54-3.52-2.39-6.84-3.52-10.21-1.91-5.6-3.52-11.27-5.63-16.72.54.66,1.06,1.34,1.58,2a2.7,2.7,0,0,0,.88,2.28,6.59,6.59,0,0,0,1.57,1,1.44,1.44,0,0,0,.18.25,3.19,3.19,0,0,0,2,1.28l5.35,9.45a2.8,2.8,0,0,0,2.46,1.51,24,24,0,0,0,1.32,5.78,3.32,3.32,0,0,0,3.52,2.12,9.55,9.55,0,0,0,2.89,4.78,2.33,2.33,0,0,0-.72,1.36c-.47,3.06-.44,6.54,2.79,8.08s6.59-1.38,9.26-3a5.37,5.37,0,0,0-.84-6.71,4.69,4.69,0,0,1-1-1,6.81,6.81,0,0,0-.6-1.21l0-.12h0a6.21,6.21,0,0,0-.47-.64,2.45,2.45,0,0,0-2.43-1,3.33,3.33,0,0,0-.44-.81,69.74,69.74,0,0,1-5.06-8,2.92,2.92,0,0,0,.06-3.16,11.63,11.63,0,0,0-1.76-2.48,2.72,2.72,0,0,0-.78-.56,25.42,25.42,0,0,0-5-4,2.89,2.89,0,0,0-1.48-.45l-4-7a3,3,0,0,0-2.8-1.43c-.73-1-1.48-1.87-2.24-2.8a7,7,0,0,1-1.81-.68,1.32,1.32,0,0,1-.48-1.8h0c-1.61-1.14-3.57-.1-4.3,1.52l-.13-.28a2.71,2.71,0,0,0-1-1.12,5.62,5.62,0,0,1,2.64-1.33c1.17.11,2.36.18,3.52.24a2.72,2.72,0,0,0,1.4-.29,7.29,7.29,0,0,1,1.69.68c1.94,1.11,3.1,3.56,4.4,5.28,5.52,7.46,13.5,13.38,17.17,22.09,1.51,3.6,7.48,2,5.94-1.64-4.15-9.84-12.48-16.2-18.59-24.65-2.46-3.41-4.56-6.49-8.85-7.63-3.65-1-7.25-1.48-10.83-2.32a18.32,18.32,0,0,1-6.1-1.36,1.35,1.35,0,0,1-.8-.88,3.49,3.49,0,0,0-3.07.62q-2.16-.59-4.29-1.32a24.66,24.66,0,0,0-2.85.08,3.27,3.27,0,0,0-1.3,2.76,8.05,8.05,0,0,0-2-1.2,12.6,12.6,0,0,0-2.68-.7c1-.43,2.06-.88,3.09-1.36-.45-.71-.33-1.76.71-1.88a31.72,31.72,0,0,1,6.16-.27c1.32-.24,2.64-.47,4-.65a2.77,2.77,0,0,0,2.42,1.87,3.49,3.49,0,0,0,.12.54,1,1,0,0,1,1.16-.17,17.13,17.13,0,0,0,7.42,1.27h.35a1.46,1.46,0,0,1,.68-.17c4.75,0,9.08.47,13.29,2.82a1.22,1.22,0,0,1,.49,1.65l-.07.11c1,.53,2,1.09,2.92,1.71a4.11,4.11,0,0,0,.52,3.46c1.58,2.54,4.81,4.07,7.32,5.48a15.75,15.75,0,0,1,4.55,3.22c1.51,1.76,2,4.34,2.89,6.44,1.16,2.64,3.1,5.2,6.16,5.63a5.47,5.47,0,0,0,6.17-4.4A3.18,3.18,0,0,0,251.32,126.76ZM91.37,144.49a2.75,2.75,0,0,0-2.77-.4,3.1,3.1,0,0,0,1-2.14c.27-.39.53-.81.77-1.22A3.4,3.4,0,0,0,92.4,143,12.15,12.15,0,0,0,91.37,144.49Zm5.52-11.62a31.88,31.88,0,0,1-4.5,4.19L98,130.79a3.07,3.07,0,0,0,.8-1.91,4.77,4.77,0,0,0,.51-.13l.28-.11a30.49,30.49,0,0,1-2.68,4.23ZM118.47,126a2.83,2.83,0,0,0-1,.09,20.81,20.81,0,0,0,1.06-2.75,11.5,11.5,0,0,1,1.2-2.56A18.77,18.77,0,0,0,118.47,126Zm32.23,5.13a23,23,0,0,1-2.25-3.91,2.42,2.42,0,0,0-1.56-1.42c-.78-1.38-1.6-2.74-2.46-4l-.73-1.11a4.67,4.67,0,0,0,.88.33,2.76,2.76,0,0,0,.56,1.37c2.12,2.94,4.4,5.89,6.4,9A3,3,0,0,0,150.7,131.17Zm.62-10.65a3.09,3.09,0,0,0,.81-.88,38.84,38.84,0,0,0,5.54,8.35c.06.64.15,1.28.26,1.91-2.06-3.21-4.39-6.31-6.64-9.38Zm7.27,33a39.26,39.26,0,0,1-1.56-8.67,20.54,20.54,0,0,0,1.85,5v.05a17.19,17.19,0,0,0,.79,3.95,3.42,3.42,0,0,0-1.12-.36Zm37.53-40.33a2.83,2.83,0,0,0-.47.29,12.07,12.07,0,0,0-1.25-.74Zm-4.4-2.74a3,3,0,0,0,1.06,1.64,5.88,5.88,0,0,0-2.05-.22,17,17,0,0,0-1.1-2.12c.68.25,1.34.5,2.05.7Z"/><path class="cls-1" d="M166.79,155.89c.88,1.7,2.54,5,1.45,6.78-.37.62-1.43,2.44-2.06,2.72s-2.07-.66-2.52-1.15a5.88,5.88,0,0,1-1.12-1.71c-.68-1.56-2.95-.22-2.28,1.32a8.56,8.56,0,0,0,4.1,4.27c1.84.76,3.2-.19,4.3-1.62s2.72-3,2.64-5a18.77,18.77,0,0,0-2.2-7c-.75-1.52-3-.19-2.28,1.33Z"/><path class="cls-6" d="M147.18,173.69a13,13,0,0,1-12.89,13.2h-.18a13.21,13.21,0,1,1,0-26.41,13.06,13.06,0,0,1,13.07,13Z"/><path class="cls-6" d="M192,173.69A13.06,13.06,0,0,1,179,186.84h-.17a13.21,13.21,0,1,1,0-26.41,13.06,13.06,0,0,1,13.11,13Z"/><path class="cls-7" d="M165.66,174.31a13.83,13.83,0,0,0-18.48,0"/><line class="cls-7" x1="120.82" y1="172.54" x2="117.23" y2="172.54"/><line class="cls-7" x1="191.98" y1="172.54" x2="195.58" y2="172.54"/><circle class="cls-8" cx="159.8" cy="159.8" r="158.3"/></g></g></svg>